G04 #@! TF.GenerationSoftware,KiCad,Pcbnew,(5.1.6)-1*
G04 #@! TF.CreationDate,2020-12-01T23:33:15+02:00*
G04 #@! TF.ProjectId,ZX_Multiface_3_1_4D,5a585f4d-756c-4746-9966-6163655f335f,rev?*
G04 #@! TF.SameCoordinates,Original*
G04 #@! TF.FileFunction,Legend,Top*
G04 #@! TF.FilePolarity,Positive*
%FSLAX46Y46*%
G04 Gerber Fmt 4.6, Leading zero omitted, Abs format (unit mm)*
G04 Created by KiCad (PCBNEW (5.1.6)-1) date 2020-12-01 23:33:15*
%MOMM*%
%LPD*%
G01*
G04 APERTURE LIST*
%ADD10C,0.150000*%
%ADD11C,0.120000*%
G04 APERTURE END LIST*
D10*
X89731885Y-95661219D02*
X89779504Y-95613600D01*
X89874742Y-95565980D01*
X90112838Y-95565980D01*
X90208076Y-95613600D01*
X90255695Y-95661219D01*
X90303314Y-95756457D01*
X90303314Y-95851695D01*
X90255695Y-95994552D01*
X89684266Y-96565980D01*
X90303314Y-96565980D01*
X90354114Y-93949780D02*
X89782685Y-93949780D01*
X90068400Y-93949780D02*
X90068400Y-92949780D01*
X89973161Y-93092638D01*
X89877923Y-93187876D01*
X89782685Y-93235495D01*
X80310604Y-100338380D02*
X79739176Y-100338380D01*
X80024890Y-100338380D02*
X80024890Y-99338380D01*
X79929652Y-99481238D01*
X79834414Y-99576476D01*
X79739176Y-99624095D01*
X81501080Y-99957428D02*
X82262985Y-99957428D01*
X84072509Y-100338380D02*
X83739176Y-99862190D01*
X83501080Y-100338380D02*
X83501080Y-99338380D01*
X83882033Y-99338380D01*
X83977271Y-99386000D01*
X84024890Y-99433619D01*
X84072509Y-99528857D01*
X84072509Y-99671714D01*
X84024890Y-99766952D01*
X83977271Y-99814571D01*
X83882033Y-99862190D01*
X83501080Y-99862190D01*
X84691557Y-99338380D02*
X84882033Y-99338380D01*
X84977271Y-99386000D01*
X85072509Y-99481238D01*
X85120128Y-99671714D01*
X85120128Y-100005047D01*
X85072509Y-100195523D01*
X84977271Y-100290761D01*
X84882033Y-100338380D01*
X84691557Y-100338380D01*
X84596319Y-100290761D01*
X84501080Y-100195523D01*
X84453461Y-100005047D01*
X84453461Y-99671714D01*
X84501080Y-99481238D01*
X84596319Y-99386000D01*
X84691557Y-99338380D01*
X85548700Y-100338380D02*
X85548700Y-99338380D01*
X85882033Y-100052666D01*
X86215366Y-99338380D01*
X86215366Y-100338380D01*
X87405842Y-100290761D02*
X87548700Y-100338380D01*
X87786795Y-100338380D01*
X87882033Y-100290761D01*
X87929652Y-100243142D01*
X87977271Y-100147904D01*
X87977271Y-100052666D01*
X87929652Y-99957428D01*
X87882033Y-99909809D01*
X87786795Y-99862190D01*
X87596319Y-99814571D01*
X87501080Y-99766952D01*
X87453461Y-99719333D01*
X87405842Y-99624095D01*
X87405842Y-99528857D01*
X87453461Y-99433619D01*
X87501080Y-99386000D01*
X87596319Y-99338380D01*
X87834414Y-99338380D01*
X87977271Y-99386000D01*
X88786795Y-100290761D02*
X88691557Y-100338380D01*
X88501080Y-100338380D01*
X88405842Y-100290761D01*
X88358223Y-100195523D01*
X88358223Y-99814571D01*
X88405842Y-99719333D01*
X88501080Y-99671714D01*
X88691557Y-99671714D01*
X88786795Y-99719333D01*
X88834414Y-99814571D01*
X88834414Y-99909809D01*
X88358223Y-100005047D01*
X89405842Y-100338380D02*
X89310604Y-100290761D01*
X89262985Y-100195523D01*
X89262985Y-99338380D01*
X79739176Y-101083619D02*
X79786795Y-101036000D01*
X79882033Y-100988380D01*
X80120128Y-100988380D01*
X80215366Y-101036000D01*
X80262985Y-101083619D01*
X80310604Y-101178857D01*
X80310604Y-101274095D01*
X80262985Y-101416952D01*
X79691557Y-101988380D01*
X80310604Y-101988380D01*
X81501080Y-101607428D02*
X82262985Y-101607428D01*
X83786795Y-100988380D02*
X83786795Y-101702666D01*
X83739176Y-101845523D01*
X83643938Y-101940761D01*
X83501080Y-101988380D01*
X83405842Y-101988380D01*
X84405842Y-101988380D02*
X84310604Y-101940761D01*
X84262985Y-101893142D01*
X84215366Y-101797904D01*
X84215366Y-101512190D01*
X84262985Y-101416952D01*
X84310604Y-101369333D01*
X84405842Y-101321714D01*
X84548700Y-101321714D01*
X84643938Y-101369333D01*
X84691557Y-101416952D01*
X84739176Y-101512190D01*
X84739176Y-101797904D01*
X84691557Y-101893142D01*
X84643938Y-101940761D01*
X84548700Y-101988380D01*
X84405842Y-101988380D01*
X85072509Y-101321714D02*
X85310604Y-101988380D01*
X85548700Y-101321714D02*
X85310604Y-101988380D01*
X85215366Y-102226476D01*
X85167747Y-102274095D01*
X85072509Y-102321714D01*
X86882033Y-100988380D02*
X87072509Y-100988380D01*
X87167747Y-101036000D01*
X87262985Y-101131238D01*
X87310604Y-101321714D01*
X87310604Y-101655047D01*
X87262985Y-101845523D01*
X87167747Y-101940761D01*
X87072509Y-101988380D01*
X86882033Y-101988380D01*
X86786795Y-101940761D01*
X86691557Y-101845523D01*
X86643938Y-101655047D01*
X86643938Y-101321714D01*
X86691557Y-101131238D01*
X86786795Y-101036000D01*
X86882033Y-100988380D01*
X87739176Y-101988380D02*
X87739176Y-100988380D01*
X88310604Y-101988380D01*
X88310604Y-100988380D01*
X88786795Y-101607428D02*
X89548700Y-101607428D01*
X90215366Y-100988380D02*
X90405842Y-100988380D01*
X90501080Y-101036000D01*
X90596319Y-101131238D01*
X90643938Y-101321714D01*
X90643938Y-101655047D01*
X90596319Y-101845523D01*
X90501080Y-101940761D01*
X90405842Y-101988380D01*
X90215366Y-101988380D01*
X90120128Y-101940761D01*
X90024890Y-101845523D01*
X89977271Y-101655047D01*
X89977271Y-101321714D01*
X90024890Y-101131238D01*
X90120128Y-101036000D01*
X90215366Y-100988380D01*
X91405842Y-101464571D02*
X91072509Y-101464571D01*
X91072509Y-101988380D02*
X91072509Y-100988380D01*
X91548700Y-100988380D01*
X92262985Y-101464571D02*
X91929652Y-101464571D01*
X91929652Y-101988380D02*
X91929652Y-100988380D01*
X92405842Y-100988380D01*
D11*
X100670000Y-65190000D02*
X100670000Y-66440000D01*
X100670000Y-66440000D02*
X131270000Y-66440000D01*
X131270000Y-66440000D02*
X131270000Y-61940000D01*
X131270000Y-61940000D02*
X100670000Y-61940000D01*
X100670000Y-61940000D02*
X100670000Y-63190000D01*
X100610000Y-69440000D02*
X131330000Y-69440000D01*
X131330000Y-69440000D02*
X131330000Y-58940000D01*
X131330000Y-58940000D02*
X100610000Y-58940000D01*
X100610000Y-58940000D02*
X100610000Y-69440000D01*
X100670000Y-63190000D02*
G75*
G02*
X100670000Y-65190000I0J-1000000D01*
G01*
X78350000Y-95230000D02*
X78350000Y-96850000D01*
X76490000Y-95230000D02*
X76490000Y-96850000D01*
X76490000Y-96850000D02*
X78350000Y-96850000D01*
X76490000Y-95230000D02*
X78350000Y-95230000D01*
X78350000Y-92690000D02*
X78350000Y-94310000D01*
X76490000Y-92690000D02*
X76490000Y-94310000D01*
X76490000Y-94310000D02*
X78350000Y-94310000D01*
X76490000Y-92690000D02*
X78350000Y-92690000D01*
X78110000Y-91150000D02*
X78110000Y-92533000D01*
X78110000Y-91150000D02*
X79493000Y-91150000D01*
X89270000Y-91390000D02*
X89270000Y-98150000D01*
X78350000Y-91390000D02*
X78350000Y-98150000D01*
X78350000Y-98150000D02*
X89270000Y-98150000D01*
X78350000Y-91390000D02*
X89270000Y-91390000D01*
X92221325Y-69000000D02*
X92654338Y-68750000D01*
X92654338Y-69250000D02*
X92221325Y-69000000D01*
X92654338Y-68750000D02*
X92654338Y-69250000D01*
X91760000Y-90025000D02*
X81280000Y-90025000D01*
X91760000Y-59055000D02*
X91760000Y-90025000D01*
X81280000Y-59055000D02*
X91760000Y-59055000D01*
X107120000Y-102670000D02*
X102060000Y-102670000D01*
X102060000Y-102670000D02*
X102060000Y-138350000D01*
X102060000Y-138350000D02*
X114180000Y-138350000D01*
X114180000Y-138350000D02*
X114180000Y-102670000D01*
X114180000Y-102670000D02*
X109120000Y-102670000D01*
X99060000Y-102610000D02*
X99060000Y-138410000D01*
X99060000Y-138410000D02*
X117180000Y-138410000D01*
X117180000Y-138410000D02*
X117180000Y-102610000D01*
X117180000Y-102610000D02*
X99060000Y-102610000D01*
X109120000Y-102670000D02*
G75*
G02*
X107120000Y-102670000I-1000000J0D01*
G01*
X132750000Y-78000000D02*
X132750000Y-76500000D01*
X131500000Y-74000000D02*
X127000000Y-74000000D01*
X125750000Y-76500000D02*
X125750000Y-78000000D01*
X127000000Y-80500000D02*
X131500000Y-80500000D01*
X108750000Y-78000000D02*
X108750000Y-76500000D01*
X107500000Y-74000000D02*
X103000000Y-74000000D01*
X101750000Y-76500000D02*
X101750000Y-78000000D01*
X103000000Y-80500000D02*
X107500000Y-80500000D01*
X97060000Y-117610000D02*
X86560000Y-117610000D01*
X97060000Y-135630000D02*
X97060000Y-117610000D01*
X86560000Y-135630000D02*
X97060000Y-135630000D01*
X86560000Y-117610000D02*
X86560000Y-135630000D01*
X94060000Y-117670000D02*
X92810000Y-117670000D01*
X94060000Y-135570000D02*
X94060000Y-117670000D01*
X89560000Y-135570000D02*
X94060000Y-135570000D01*
X89560000Y-117670000D02*
X89560000Y-135570000D01*
X90810000Y-117670000D02*
X89560000Y-117670000D01*
X92810000Y-117670000D02*
G75*
G02*
X90810000Y-117670000I-1000000J0D01*
G01*
X149610000Y-78940000D02*
X149610000Y-89440000D01*
X167630000Y-78940000D02*
X149610000Y-78940000D01*
X167630000Y-89440000D02*
X167630000Y-78940000D01*
X149610000Y-89440000D02*
X167630000Y-89440000D01*
X149670000Y-81940000D02*
X149670000Y-83190000D01*
X167570000Y-81940000D02*
X149670000Y-81940000D01*
X167570000Y-86440000D02*
X167570000Y-81940000D01*
X149670000Y-86440000D02*
X167570000Y-86440000D01*
X149670000Y-85190000D02*
X149670000Y-86440000D01*
X149670000Y-83190000D02*
G75*
G02*
X149670000Y-85190000I0J-1000000D01*
G01*
X149610000Y-104440000D02*
X149610000Y-114940000D01*
X167630000Y-104440000D02*
X149610000Y-104440000D01*
X167630000Y-114940000D02*
X167630000Y-104440000D01*
X149610000Y-114940000D02*
X167630000Y-114940000D01*
X149670000Y-107440000D02*
X149670000Y-108690000D01*
X167570000Y-107440000D02*
X149670000Y-107440000D01*
X167570000Y-111940000D02*
X167570000Y-107440000D01*
X149670000Y-111940000D02*
X167570000Y-111940000D01*
X149670000Y-110690000D02*
X149670000Y-111940000D01*
X149670000Y-108690000D02*
G75*
G02*
X149670000Y-110690000I0J-1000000D01*
G01*
X146060000Y-58610000D02*
X135560000Y-58610000D01*
X146060000Y-76630000D02*
X146060000Y-58610000D01*
X135560000Y-76630000D02*
X146060000Y-76630000D01*
X135560000Y-58610000D02*
X135560000Y-76630000D01*
X143060000Y-58670000D02*
X141810000Y-58670000D01*
X143060000Y-76570000D02*
X143060000Y-58670000D01*
X138560000Y-76570000D02*
X143060000Y-76570000D01*
X138560000Y-58670000D02*
X138560000Y-76570000D01*
X139810000Y-58670000D02*
X138560000Y-58670000D01*
X141810000Y-58670000D02*
G75*
G02*
X139810000Y-58670000I-1000000J0D01*
G01*
X137180000Y-102610000D02*
X119060000Y-102610000D01*
X137180000Y-138410000D02*
X137180000Y-102610000D01*
X119060000Y-138410000D02*
X137180000Y-138410000D01*
X119060000Y-102610000D02*
X119060000Y-138410000D01*
X134180000Y-102670000D02*
X129120000Y-102670000D01*
X134180000Y-138350000D02*
X134180000Y-102670000D01*
X122060000Y-138350000D02*
X134180000Y-138350000D01*
X122060000Y-102670000D02*
X122060000Y-138350000D01*
X127120000Y-102670000D02*
X122060000Y-102670000D01*
X129120000Y-102670000D02*
G75*
G02*
X127120000Y-102670000I-1000000J0D01*
G01*
X146060000Y-81610000D02*
X135560000Y-81610000D01*
X146060000Y-99630000D02*
X146060000Y-81610000D01*
X135560000Y-99630000D02*
X146060000Y-99630000D01*
X135560000Y-81610000D02*
X135560000Y-99630000D01*
X143060000Y-81670000D02*
X141810000Y-81670000D01*
X143060000Y-99570000D02*
X143060000Y-81670000D01*
X138560000Y-99570000D02*
X143060000Y-99570000D01*
X138560000Y-81670000D02*
X138560000Y-99570000D01*
X139810000Y-81670000D02*
X138560000Y-81670000D01*
X141810000Y-81670000D02*
G75*
G02*
X139810000Y-81670000I-1000000J0D01*
G01*
X149610000Y-66440000D02*
X149610000Y-76940000D01*
X167630000Y-66440000D02*
X149610000Y-66440000D01*
X167630000Y-76940000D02*
X167630000Y-66440000D01*
X149610000Y-76940000D02*
X167630000Y-76940000D01*
X149670000Y-69440000D02*
X149670000Y-70690000D01*
X167570000Y-69440000D02*
X149670000Y-69440000D01*
X167570000Y-73940000D02*
X167570000Y-69440000D01*
X149670000Y-73940000D02*
X167570000Y-73940000D01*
X149670000Y-72690000D02*
X149670000Y-73940000D01*
X149670000Y-70690000D02*
G75*
G02*
X149670000Y-72690000I0J-1000000D01*
G01*
X79110000Y-102940000D02*
X79110000Y-113440000D01*
X97130000Y-102940000D02*
X79110000Y-102940000D01*
X97130000Y-113440000D02*
X97130000Y-102940000D01*
X79110000Y-113440000D02*
X97130000Y-113440000D01*
X79170000Y-105940000D02*
X79170000Y-107190000D01*
X97070000Y-105940000D02*
X79170000Y-105940000D01*
X97070000Y-110440000D02*
X97070000Y-105940000D01*
X79170000Y-110440000D02*
X97070000Y-110440000D01*
X79170000Y-109190000D02*
X79170000Y-110440000D01*
X79170000Y-107190000D02*
G75*
G02*
X79170000Y-109190000I0J-1000000D01*
G01*
X100610000Y-85940000D02*
X100610000Y-96440000D01*
X126250000Y-85940000D02*
X100610000Y-85940000D01*
X126250000Y-96440000D02*
X126250000Y-85940000D01*
X100610000Y-96440000D02*
X126250000Y-96440000D01*
X100670000Y-88940000D02*
X100670000Y-90190000D01*
X126190000Y-88940000D02*
X100670000Y-88940000D01*
X126190000Y-93440000D02*
X126190000Y-88940000D01*
X100670000Y-93440000D02*
X126190000Y-93440000D01*
X100670000Y-92190000D02*
X100670000Y-93440000D01*
X100670000Y-90190000D02*
G75*
G02*
X100670000Y-92190000I0J-1000000D01*
G01*
X149610000Y-91940000D02*
X149610000Y-102440000D01*
X167630000Y-91940000D02*
X149610000Y-91940000D01*
X167630000Y-102440000D02*
X167630000Y-91940000D01*
X149610000Y-102440000D02*
X167630000Y-102440000D01*
X149670000Y-94940000D02*
X149670000Y-96190000D01*
X167570000Y-94940000D02*
X149670000Y-94940000D01*
X167570000Y-99440000D02*
X167570000Y-94940000D01*
X149670000Y-99440000D02*
X167570000Y-99440000D01*
X149670000Y-98190000D02*
X149670000Y-99440000D01*
X149670000Y-96190000D02*
G75*
G02*
X149670000Y-98190000I0J-1000000D01*
G01*
X149060000Y-121610000D02*
X138560000Y-121610000D01*
X149060000Y-139630000D02*
X149060000Y-121610000D01*
X138560000Y-139630000D02*
X149060000Y-139630000D01*
X138560000Y-121610000D02*
X138560000Y-139630000D01*
X146060000Y-121670000D02*
X144810000Y-121670000D01*
X146060000Y-139570000D02*
X146060000Y-121670000D01*
X141560000Y-139570000D02*
X146060000Y-139570000D01*
X141560000Y-121670000D02*
X141560000Y-139570000D01*
X142810000Y-121670000D02*
X141560000Y-121670000D01*
X144810000Y-121670000D02*
G75*
G02*
X142810000Y-121670000I-1000000J0D01*
G01*
X161560000Y-119110000D02*
X151060000Y-119110000D01*
X161560000Y-139670000D02*
X161560000Y-119110000D01*
X151060000Y-139670000D02*
X161560000Y-139670000D01*
X151060000Y-119110000D02*
X151060000Y-139670000D01*
X158560000Y-119170000D02*
X157310000Y-119170000D01*
X158560000Y-139610000D02*
X158560000Y-119170000D01*
X154060000Y-139610000D02*
X158560000Y-139610000D01*
X154060000Y-119170000D02*
X154060000Y-139610000D01*
X155310000Y-119170000D02*
X154060000Y-119170000D01*
X157310000Y-119170000D02*
G75*
G02*
X155310000Y-119170000I-1000000J0D01*
G01*
X118290000Y-73920000D02*
X118290000Y-73764000D01*
X118290000Y-76236000D02*
X118290000Y-76080000D01*
X115688870Y-73920163D02*
G75*
G02*
X117770961Y-73920000I1041130J-1079837D01*
G01*
X115688870Y-76079837D02*
G75*
G03*
X117770961Y-76080000I1041130J1079837D01*
G01*
X115057665Y-73921392D02*
G75*
G02*
X118290000Y-73764484I1672335J-1078608D01*
G01*
X115057665Y-76078608D02*
G75*
G03*
X118290000Y-76235516I1672335J1078608D01*
G01*
D10*
X99122380Y-65428095D02*
X99931904Y-65428095D01*
X100027142Y-65380476D01*
X100074761Y-65332857D01*
X100122380Y-65237619D01*
X100122380Y-65047142D01*
X100074761Y-64951904D01*
X100027142Y-64904285D01*
X99931904Y-64856666D01*
X99122380Y-64856666D01*
X100122380Y-63856666D02*
X100122380Y-64428095D01*
X100122380Y-64142380D02*
X99122380Y-64142380D01*
X99265238Y-64237619D01*
X99360476Y-64332857D01*
X99408095Y-64428095D01*
X99455714Y-62999523D02*
X100122380Y-62999523D01*
X99074761Y-63237619D02*
X99789047Y-63475714D01*
X99789047Y-62856666D01*
X131770000Y-67594761D02*
X131722380Y-67690000D01*
X131722380Y-67832857D01*
X131770000Y-67975714D01*
X131865238Y-68070952D01*
X131960476Y-68118571D01*
X132150952Y-68166190D01*
X132293809Y-68166190D01*
X132484285Y-68118571D01*
X132579523Y-68070952D01*
X132674761Y-67975714D01*
X132722380Y-67832857D01*
X132722380Y-67737619D01*
X132674761Y-67594761D01*
X132627142Y-67547142D01*
X132293809Y-67547142D01*
X132293809Y-67737619D01*
X132436666Y-67166190D02*
X132436666Y-66690000D01*
X132722380Y-67261428D02*
X131722380Y-66928095D01*
X132722380Y-66594761D01*
X132722380Y-65785238D02*
X132722380Y-66261428D01*
X131722380Y-66261428D01*
X131817619Y-65499523D02*
X131770000Y-65451904D01*
X131722380Y-65356666D01*
X131722380Y-65118571D01*
X131770000Y-65023333D01*
X131817619Y-64975714D01*
X131912857Y-64928095D01*
X132008095Y-64928095D01*
X132150952Y-64975714D01*
X132722380Y-65547142D01*
X132722380Y-64928095D01*
X131817619Y-64547142D02*
X131770000Y-64499523D01*
X131722380Y-64404285D01*
X131722380Y-64166190D01*
X131770000Y-64070952D01*
X131817619Y-64023333D01*
X131912857Y-63975714D01*
X132008095Y-63975714D01*
X132150952Y-64023333D01*
X132722380Y-64594761D01*
X132722380Y-63975714D01*
X131722380Y-63690000D02*
X132722380Y-63356666D01*
X131722380Y-63023333D01*
X132722380Y-62166190D02*
X132722380Y-62737619D01*
X132722380Y-62451904D02*
X131722380Y-62451904D01*
X131865238Y-62547142D01*
X131960476Y-62642380D01*
X132008095Y-62737619D01*
X131722380Y-61547142D02*
X131722380Y-61451904D01*
X131770000Y-61356666D01*
X131817619Y-61309047D01*
X131912857Y-61261428D01*
X132103333Y-61213809D01*
X132341428Y-61213809D01*
X132531904Y-61261428D01*
X132627142Y-61309047D01*
X132674761Y-61356666D01*
X132722380Y-61451904D01*
X132722380Y-61547142D01*
X132674761Y-61642380D01*
X132627142Y-61690000D01*
X132531904Y-61737619D01*
X132341428Y-61785238D01*
X132103333Y-61785238D01*
X131912857Y-61737619D01*
X131817619Y-61690000D01*
X131770000Y-61642380D01*
X131722380Y-61547142D01*
X132722380Y-60785238D02*
X131722380Y-60785238D01*
X131722380Y-60547142D01*
X131770000Y-60404285D01*
X131865238Y-60309047D01*
X131960476Y-60261428D01*
X132150952Y-60213809D01*
X132293809Y-60213809D01*
X132484285Y-60261428D01*
X132579523Y-60309047D01*
X132674761Y-60404285D01*
X132722380Y-60547142D01*
X132722380Y-60785238D01*
X82451266Y-96546361D02*
X82594123Y-96593980D01*
X82832219Y-96593980D01*
X82927457Y-96546361D01*
X82975076Y-96498742D01*
X83022695Y-96403504D01*
X83022695Y-96308266D01*
X82975076Y-96213028D01*
X82927457Y-96165409D01*
X82832219Y-96117790D01*
X82641742Y-96070171D01*
X82546504Y-96022552D01*
X82498885Y-95974933D01*
X82451266Y-95879695D01*
X82451266Y-95784457D01*
X82498885Y-95689219D01*
X82546504Y-95641600D01*
X82641742Y-95593980D01*
X82879838Y-95593980D01*
X83022695Y-95641600D01*
X83356028Y-95593980D02*
X83594123Y-96593980D01*
X83784600Y-95879695D01*
X83975076Y-96593980D01*
X84213171Y-95593980D01*
X84498885Y-95593980D02*
X85117933Y-95593980D01*
X84784600Y-95974933D01*
X84927457Y-95974933D01*
X85022695Y-96022552D01*
X85070314Y-96070171D01*
X85117933Y-96165409D01*
X85117933Y-96403504D01*
X85070314Y-96498742D01*
X85022695Y-96546361D01*
X84927457Y-96593980D01*
X84641742Y-96593980D01*
X84546504Y-96546361D01*
X84498885Y-96498742D01*
X92425780Y-97369000D02*
X91949590Y-97702333D01*
X92425780Y-97940428D02*
X91425780Y-97940428D01*
X91425780Y-97559476D01*
X91473400Y-97464238D01*
X91521019Y-97416619D01*
X91616257Y-97369000D01*
X91759114Y-97369000D01*
X91854352Y-97416619D01*
X91901971Y-97464238D01*
X91949590Y-97559476D01*
X91949590Y-97940428D01*
X91425780Y-96749952D02*
X91425780Y-96559476D01*
X91473400Y-96464238D01*
X91568638Y-96369000D01*
X91759114Y-96321380D01*
X92092447Y-96321380D01*
X92282923Y-96369000D01*
X92378161Y-96464238D01*
X92425780Y-96559476D01*
X92425780Y-96749952D01*
X92378161Y-96845190D01*
X92282923Y-96940428D01*
X92092447Y-96988047D01*
X91759114Y-96988047D01*
X91568638Y-96940428D01*
X91473400Y-96845190D01*
X91425780Y-96749952D01*
X92425780Y-95892809D02*
X91425780Y-95892809D01*
X92140066Y-95559476D01*
X91425780Y-95226142D01*
X92425780Y-95226142D01*
X92521019Y-94988047D02*
X92521019Y-94226142D01*
X91425780Y-93702333D02*
X92140066Y-93702333D01*
X92282923Y-93749952D01*
X92378161Y-93845190D01*
X92425780Y-93988047D01*
X92425780Y-94083285D01*
X91425780Y-93035666D02*
X91425780Y-92845190D01*
X91473400Y-92749952D01*
X91568638Y-92654714D01*
X91759114Y-92607095D01*
X92092447Y-92607095D01*
X92282923Y-92654714D01*
X92378161Y-92749952D01*
X92425780Y-92845190D01*
X92425780Y-93035666D01*
X92378161Y-93130904D01*
X92282923Y-93226142D01*
X92092447Y-93273761D01*
X91759114Y-93273761D01*
X91568638Y-93226142D01*
X91473400Y-93130904D01*
X91425780Y-93035666D01*
X91949590Y-91988047D02*
X92425780Y-91988047D01*
X91425780Y-92321380D02*
X91949590Y-91988047D01*
X91425780Y-91654714D01*
X92467180Y-85677333D02*
X93181466Y-85677333D01*
X93324323Y-85724952D01*
X93419561Y-85820190D01*
X93467180Y-85963047D01*
X93467180Y-86058285D01*
X93467180Y-84677333D02*
X93467180Y-85248761D01*
X93467180Y-84963047D02*
X92467180Y-84963047D01*
X92610038Y-85058285D01*
X92705276Y-85153523D01*
X92752895Y-85248761D01*
X93467180Y-78309361D02*
X92467180Y-78309361D01*
X93467180Y-77737933D02*
X92895752Y-78166504D01*
X92467180Y-77737933D02*
X93038609Y-78309361D01*
X93419561Y-76928409D02*
X93467180Y-77023647D01*
X93467180Y-77214123D01*
X93419561Y-77309361D01*
X93324323Y-77356980D01*
X92943371Y-77356980D01*
X92848133Y-77309361D01*
X92800514Y-77214123D01*
X92800514Y-77023647D01*
X92848133Y-76928409D01*
X92943371Y-76880790D01*
X93038609Y-76880790D01*
X93133847Y-77356980D01*
X93467180Y-76452219D02*
X92800514Y-76452219D01*
X92895752Y-76452219D02*
X92848133Y-76404600D01*
X92800514Y-76309361D01*
X92800514Y-76166504D01*
X92848133Y-76071266D01*
X92943371Y-76023647D01*
X93467180Y-76023647D01*
X92943371Y-76023647D02*
X92848133Y-75976028D01*
X92800514Y-75880790D01*
X92800514Y-75737933D01*
X92848133Y-75642695D01*
X92943371Y-75595076D01*
X93467180Y-75595076D01*
X92800514Y-75118885D02*
X93800514Y-75118885D01*
X92848133Y-75118885D02*
X92800514Y-75023647D01*
X92800514Y-74833171D01*
X92848133Y-74737933D01*
X92895752Y-74690314D01*
X92990990Y-74642695D01*
X93276704Y-74642695D01*
X93371942Y-74690314D01*
X93419561Y-74737933D01*
X93467180Y-74833171D01*
X93467180Y-75023647D01*
X93419561Y-75118885D01*
X93419561Y-74261742D02*
X93467180Y-74166504D01*
X93467180Y-73976028D01*
X93419561Y-73880790D01*
X93324323Y-73833171D01*
X93276704Y-73833171D01*
X93181466Y-73880790D01*
X93133847Y-73976028D01*
X93133847Y-74118885D01*
X93086228Y-74214123D01*
X92990990Y-74261742D01*
X92943371Y-74261742D01*
X92848133Y-74214123D01*
X92800514Y-74118885D01*
X92800514Y-73976028D01*
X92848133Y-73880790D01*
X92800514Y-73547457D02*
X92800514Y-73166504D01*
X92467180Y-73404600D02*
X93324323Y-73404600D01*
X93419561Y-73356980D01*
X93467180Y-73261742D01*
X93467180Y-73166504D01*
X93467180Y-72690314D02*
X93419561Y-72785552D01*
X93371942Y-72833171D01*
X93276704Y-72880790D01*
X92990990Y-72880790D01*
X92895752Y-72833171D01*
X92848133Y-72785552D01*
X92800514Y-72690314D01*
X92800514Y-72547457D01*
X92848133Y-72452219D01*
X92895752Y-72404600D01*
X92990990Y-72356980D01*
X93276704Y-72356980D01*
X93371942Y-72404600D01*
X93419561Y-72452219D01*
X93467180Y-72547457D01*
X93467180Y-72690314D01*
X92800514Y-71928409D02*
X93467180Y-71928409D01*
X92895752Y-71928409D02*
X92848133Y-71880790D01*
X92800514Y-71785552D01*
X92800514Y-71642695D01*
X92848133Y-71547457D01*
X92943371Y-71499838D01*
X93467180Y-71499838D01*
X107358095Y-101122380D02*
X107358095Y-101931904D01*
X107405714Y-102027142D01*
X107453333Y-102074761D01*
X107548571Y-102122380D01*
X107739047Y-102122380D01*
X107834285Y-102074761D01*
X107881904Y-102027142D01*
X107929523Y-101931904D01*
X107929523Y-101122380D01*
X108881904Y-101122380D02*
X108405714Y-101122380D01*
X108358095Y-101598571D01*
X108405714Y-101550952D01*
X108500952Y-101503333D01*
X108739047Y-101503333D01*
X108834285Y-101550952D01*
X108881904Y-101598571D01*
X108929523Y-101693809D01*
X108929523Y-101931904D01*
X108881904Y-102027142D01*
X108834285Y-102074761D01*
X108739047Y-102122380D01*
X108500952Y-102122380D01*
X108405714Y-102074761D01*
X108358095Y-102027142D01*
X104858095Y-138802380D02*
X105096190Y-139802380D01*
X105286666Y-139088095D01*
X105477142Y-139802380D01*
X105715238Y-138802380D01*
X106048571Y-138897619D02*
X106096190Y-138850000D01*
X106191428Y-138802380D01*
X106429523Y-138802380D01*
X106524761Y-138850000D01*
X106572380Y-138897619D01*
X106620000Y-138992857D01*
X106620000Y-139088095D01*
X106572380Y-139230952D01*
X106000952Y-139802380D01*
X106620000Y-139802380D01*
X106953333Y-138802380D02*
X107620000Y-138802380D01*
X107191428Y-139802380D01*
X108000952Y-139278571D02*
X108334285Y-139278571D01*
X108477142Y-139802380D02*
X108000952Y-139802380D01*
X108000952Y-138802380D01*
X108477142Y-138802380D01*
X108858095Y-138897619D02*
X108905714Y-138850000D01*
X109000952Y-138802380D01*
X109239047Y-138802380D01*
X109334285Y-138850000D01*
X109381904Y-138897619D01*
X109429523Y-138992857D01*
X109429523Y-139088095D01*
X109381904Y-139230952D01*
X108810476Y-139802380D01*
X109429523Y-139802380D01*
X110334285Y-138802380D02*
X109858095Y-138802380D01*
X109810476Y-139278571D01*
X109858095Y-139230952D01*
X109953333Y-139183333D01*
X110191428Y-139183333D01*
X110286666Y-139230952D01*
X110334285Y-139278571D01*
X110381904Y-139373809D01*
X110381904Y-139611904D01*
X110334285Y-139707142D01*
X110286666Y-139754761D01*
X110191428Y-139802380D01*
X109953333Y-139802380D01*
X109858095Y-139754761D01*
X109810476Y-139707142D01*
X110715238Y-138802380D02*
X111381904Y-138802380D01*
X110953333Y-139802380D01*
X126662228Y-82113380D02*
X126662228Y-81113380D01*
X126995561Y-81827666D01*
X127328895Y-81113380D01*
X127328895Y-82113380D01*
X128138419Y-81589571D02*
X127805085Y-81589571D01*
X127805085Y-82113380D02*
X127805085Y-81113380D01*
X128281276Y-81113380D01*
X128566990Y-81113380D02*
X129186038Y-81113380D01*
X128852704Y-81494333D01*
X128995561Y-81494333D01*
X129090800Y-81541952D01*
X129138419Y-81589571D01*
X129186038Y-81684809D01*
X129186038Y-81922904D01*
X129138419Y-82018142D01*
X129090800Y-82065761D01*
X128995561Y-82113380D01*
X128709847Y-82113380D01*
X128614609Y-82065761D01*
X128566990Y-82018142D01*
X129376514Y-82208619D02*
X130138419Y-82208619D01*
X130328895Y-81827666D02*
X130805085Y-81827666D01*
X130233657Y-82113380D02*
X130566990Y-81113380D01*
X130900323Y-82113380D01*
X131805085Y-82018142D02*
X131757466Y-82065761D01*
X131614609Y-82113380D01*
X131519371Y-82113380D01*
X131376514Y-82065761D01*
X131281276Y-81970523D01*
X131233657Y-81875285D01*
X131186038Y-81684809D01*
X131186038Y-81541952D01*
X131233657Y-81351476D01*
X131281276Y-81256238D01*
X131376514Y-81161000D01*
X131519371Y-81113380D01*
X131614609Y-81113380D01*
X131757466Y-81161000D01*
X131805085Y-81208619D01*
X132090800Y-81113380D02*
X132662228Y-81113380D01*
X132376514Y-82113380D02*
X132376514Y-81113380D01*
X103906819Y-82189580D02*
X103573485Y-81713390D01*
X103335390Y-82189580D02*
X103335390Y-81189580D01*
X103716342Y-81189580D01*
X103811580Y-81237200D01*
X103859200Y-81284819D01*
X103906819Y-81380057D01*
X103906819Y-81522914D01*
X103859200Y-81618152D01*
X103811580Y-81665771D01*
X103716342Y-81713390D01*
X103335390Y-81713390D01*
X104335390Y-81665771D02*
X104668723Y-81665771D01*
X104811580Y-82189580D02*
X104335390Y-82189580D01*
X104335390Y-81189580D01*
X104811580Y-81189580D01*
X105192533Y-82141961D02*
X105335390Y-82189580D01*
X105573485Y-82189580D01*
X105668723Y-82141961D01*
X105716342Y-82094342D01*
X105763961Y-81999104D01*
X105763961Y-81903866D01*
X105716342Y-81808628D01*
X105668723Y-81761009D01*
X105573485Y-81713390D01*
X105383009Y-81665771D01*
X105287771Y-81618152D01*
X105240152Y-81570533D01*
X105192533Y-81475295D01*
X105192533Y-81380057D01*
X105240152Y-81284819D01*
X105287771Y-81237200D01*
X105383009Y-81189580D01*
X105621104Y-81189580D01*
X105763961Y-81237200D01*
X106192533Y-81665771D02*
X106525866Y-81665771D01*
X106668723Y-82189580D02*
X106192533Y-82189580D01*
X106192533Y-81189580D01*
X106668723Y-81189580D01*
X106954438Y-81189580D02*
X107525866Y-81189580D01*
X107240152Y-82189580D02*
X107240152Y-81189580D01*
X129246071Y-143452380D02*
X129912738Y-143452380D01*
X129246071Y-144452380D01*
X129912738Y-144452380D01*
X130198452Y-143452380D02*
X130865119Y-144452380D01*
X130865119Y-143452380D02*
X130198452Y-144452380D01*
X131007976Y-144547619D02*
X131769880Y-144547619D01*
X132007976Y-144452380D02*
X132007976Y-143452380D01*
X132388928Y-143452380D01*
X132484166Y-143500000D01*
X132531785Y-143547619D01*
X132579404Y-143642857D01*
X132579404Y-143785714D01*
X132531785Y-143880952D01*
X132484166Y-143928571D01*
X132388928Y-143976190D01*
X132007976Y-143976190D01*
X133150833Y-144452380D02*
X133055595Y-144404761D01*
X133007976Y-144309523D01*
X133007976Y-143452380D01*
X133960357Y-143785714D02*
X133960357Y-144452380D01*
X133531785Y-143785714D02*
X133531785Y-144309523D01*
X133579404Y-144404761D01*
X133674642Y-144452380D01*
X133817500Y-144452380D01*
X133912738Y-144404761D01*
X133960357Y-144357142D01*
X134388928Y-144404761D02*
X134484166Y-144452380D01*
X134674642Y-144452380D01*
X134769880Y-144404761D01*
X134817500Y-144309523D01*
X134817500Y-144261904D01*
X134769880Y-144166666D01*
X134674642Y-144119047D01*
X134531785Y-144119047D01*
X134436547Y-144071428D01*
X134388928Y-143976190D01*
X134388928Y-143928571D01*
X134436547Y-143833333D01*
X134531785Y-143785714D01*
X134674642Y-143785714D01*
X134769880Y-143833333D01*
X135150833Y-143452380D02*
X135769880Y-143452380D01*
X135436547Y-143833333D01*
X135579404Y-143833333D01*
X135674642Y-143880952D01*
X135722261Y-143928571D01*
X135769880Y-144023809D01*
X135769880Y-144261904D01*
X135722261Y-144357142D01*
X135674642Y-144404761D01*
X135579404Y-144452380D01*
X135293690Y-144452380D01*
X135198452Y-144404761D01*
X135150833Y-144357142D01*
X135960357Y-144547619D02*
X136722261Y-144547619D01*
X136960357Y-143928571D02*
X137293690Y-143928571D01*
X137436547Y-144452380D02*
X136960357Y-144452380D01*
X136960357Y-143452380D01*
X137436547Y-143452380D01*
X137865119Y-144452380D02*
X137865119Y-143452380D01*
X138103214Y-143452380D01*
X138246071Y-143500000D01*
X138341309Y-143595238D01*
X138388928Y-143690476D01*
X138436547Y-143880952D01*
X138436547Y-144023809D01*
X138388928Y-144214285D01*
X138341309Y-144309523D01*
X138246071Y-144404761D01*
X138103214Y-144452380D01*
X137865119Y-144452380D01*
X139388928Y-143500000D02*
X139293690Y-143452380D01*
X139150833Y-143452380D01*
X139007976Y-143500000D01*
X138912738Y-143595238D01*
X138865119Y-143690476D01*
X138817500Y-143880952D01*
X138817500Y-144023809D01*
X138865119Y-144214285D01*
X138912738Y-144309523D01*
X139007976Y-144404761D01*
X139150833Y-144452380D01*
X139246071Y-144452380D01*
X139388928Y-144404761D01*
X139436547Y-144357142D01*
X139436547Y-144023809D01*
X139246071Y-144023809D01*
X139865119Y-143928571D02*
X140198452Y-143928571D01*
X140341309Y-144452380D02*
X139865119Y-144452380D01*
X139865119Y-143452380D01*
X140341309Y-143452380D01*
X86653895Y-136105380D02*
X86653895Y-136914904D01*
X86701514Y-137010142D01*
X86749133Y-137057761D01*
X86844371Y-137105380D01*
X87034847Y-137105380D01*
X87130085Y-137057761D01*
X87177704Y-137010142D01*
X87225323Y-136914904D01*
X87225323Y-136105380D01*
X87749133Y-137105380D02*
X87939609Y-137105380D01*
X88034847Y-137057761D01*
X88082466Y-137010142D01*
X88177704Y-136867285D01*
X88225323Y-136676809D01*
X88225323Y-136295857D01*
X88177704Y-136200619D01*
X88130085Y-136153000D01*
X88034847Y-136105380D01*
X87844371Y-136105380D01*
X87749133Y-136153000D01*
X87701514Y-136200619D01*
X87653895Y-136295857D01*
X87653895Y-136533952D01*
X87701514Y-136629190D01*
X87749133Y-136676809D01*
X87844371Y-136724428D01*
X88034847Y-136724428D01*
X88130085Y-136676809D01*
X88177704Y-136629190D01*
X88225323Y-136533952D01*
X91732542Y-136105380D02*
X92399209Y-136105380D01*
X91970638Y-137105380D01*
X93208733Y-136438714D02*
X93208733Y-137105380D01*
X92970638Y-136057761D02*
X92732542Y-136772047D01*
X93351590Y-136772047D01*
X94208733Y-137105380D02*
X93732542Y-137105380D01*
X93732542Y-136105380D01*
X94494447Y-137057761D02*
X94637304Y-137105380D01*
X94875400Y-137105380D01*
X94970638Y-137057761D01*
X95018257Y-137010142D01*
X95065876Y-136914904D01*
X95065876Y-136819666D01*
X95018257Y-136724428D01*
X94970638Y-136676809D01*
X94875400Y-136629190D01*
X94684923Y-136581571D01*
X94589685Y-136533952D01*
X94542066Y-136486333D01*
X94494447Y-136391095D01*
X94494447Y-136295857D01*
X94542066Y-136200619D01*
X94589685Y-136153000D01*
X94684923Y-136105380D01*
X94923019Y-136105380D01*
X95065876Y-136153000D01*
X95399209Y-136105380D02*
X96065876Y-136105380D01*
X95637304Y-137105380D01*
X96875400Y-136438714D02*
X96875400Y-137105380D01*
X96637304Y-136057761D02*
X96399209Y-136772047D01*
X97018257Y-136772047D01*
X168105380Y-88761904D02*
X168914904Y-88761904D01*
X169010142Y-88714285D01*
X169057761Y-88666666D01*
X169105380Y-88571428D01*
X169105380Y-88380952D01*
X169057761Y-88285714D01*
X169010142Y-88238095D01*
X168914904Y-88190476D01*
X168105380Y-88190476D01*
X168105380Y-87809523D02*
X168105380Y-87142857D01*
X169105380Y-87571428D01*
X168105380Y-84673857D02*
X168105380Y-84007190D01*
X169105380Y-84435761D01*
X168438714Y-83197666D02*
X169105380Y-83197666D01*
X168057761Y-83435761D02*
X168772047Y-83673857D01*
X168772047Y-83054809D01*
X169105380Y-82197666D02*
X169105380Y-82673857D01*
X168105380Y-82673857D01*
X169057761Y-81911952D02*
X169105380Y-81769095D01*
X169105380Y-81531000D01*
X169057761Y-81435761D01*
X169010142Y-81388142D01*
X168914904Y-81340523D01*
X168819666Y-81340523D01*
X168724428Y-81388142D01*
X168676809Y-81435761D01*
X168629190Y-81531000D01*
X168581571Y-81721476D01*
X168533952Y-81816714D01*
X168486333Y-81864333D01*
X168391095Y-81911952D01*
X168295857Y-81911952D01*
X168200619Y-81864333D01*
X168153000Y-81816714D01*
X168105380Y-81721476D01*
X168105380Y-81483380D01*
X168153000Y-81340523D01*
X168105380Y-81007190D02*
X168105380Y-80340523D01*
X169105380Y-80769095D01*
X168438714Y-79531000D02*
X169105380Y-79531000D01*
X168057761Y-79769095D02*
X168772047Y-80007190D01*
X168772047Y-79388142D01*
X168105380Y-114769904D02*
X168914904Y-114769904D01*
X169010142Y-114722285D01*
X169057761Y-114674666D01*
X169105380Y-114579428D01*
X169105380Y-114388952D01*
X169057761Y-114293714D01*
X169010142Y-114246095D01*
X168914904Y-114198476D01*
X168105380Y-114198476D01*
X168105380Y-113817523D02*
X168105380Y-113198476D01*
X168486333Y-113531809D01*
X168486333Y-113388952D01*
X168533952Y-113293714D01*
X168581571Y-113246095D01*
X168676809Y-113198476D01*
X168914904Y-113198476D01*
X169010142Y-113246095D01*
X169057761Y-113293714D01*
X169105380Y-113388952D01*
X169105380Y-113674666D01*
X169057761Y-113769904D01*
X169010142Y-113817523D01*
X168105380Y-110046857D02*
X168105380Y-109380190D01*
X169105380Y-109808761D01*
X168438714Y-108570666D02*
X169105380Y-108570666D01*
X168057761Y-108808761D02*
X168772047Y-109046857D01*
X168772047Y-108427809D01*
X169105380Y-107570666D02*
X169105380Y-108046857D01*
X168105380Y-108046857D01*
X169057761Y-107284952D02*
X169105380Y-107142095D01*
X169105380Y-106904000D01*
X169057761Y-106808761D01*
X169010142Y-106761142D01*
X168914904Y-106713523D01*
X168819666Y-106713523D01*
X168724428Y-106761142D01*
X168676809Y-106808761D01*
X168629190Y-106904000D01*
X168581571Y-107094476D01*
X168533952Y-107189714D01*
X168486333Y-107237333D01*
X168391095Y-107284952D01*
X168295857Y-107284952D01*
X168200619Y-107237333D01*
X168153000Y-107189714D01*
X168105380Y-107094476D01*
X168105380Y-106856380D01*
X168153000Y-106713523D01*
X168105380Y-106380190D02*
X168105380Y-105713523D01*
X169105380Y-106142095D01*
X168438714Y-104904000D02*
X169105380Y-104904000D01*
X168057761Y-105142095D02*
X168772047Y-105380190D01*
X168772047Y-104761142D01*
X135675104Y-77036980D02*
X135675104Y-77846504D01*
X135722723Y-77941742D01*
X135770342Y-77989361D01*
X135865580Y-78036980D01*
X136056057Y-78036980D01*
X136151295Y-77989361D01*
X136198914Y-77941742D01*
X136246533Y-77846504D01*
X136246533Y-77036980D01*
X137246533Y-78036980D02*
X136675104Y-78036980D01*
X136960819Y-78036980D02*
X136960819Y-77036980D01*
X136865580Y-77179838D01*
X136770342Y-77275076D01*
X136675104Y-77322695D01*
X138198914Y-78036980D02*
X137627485Y-78036980D01*
X137913200Y-78036980D02*
X137913200Y-77036980D01*
X137817961Y-77179838D01*
X137722723Y-77275076D01*
X137627485Y-77322695D01*
X140594942Y-77036980D02*
X141261609Y-77036980D01*
X140833038Y-78036980D01*
X142071133Y-77370314D02*
X142071133Y-78036980D01*
X141833038Y-76989361D02*
X141594942Y-77703647D01*
X142213990Y-77703647D01*
X143071133Y-78036980D02*
X142594942Y-78036980D01*
X142594942Y-77036980D01*
X143356847Y-77989361D02*
X143499704Y-78036980D01*
X143737800Y-78036980D01*
X143833038Y-77989361D01*
X143880657Y-77941742D01*
X143928276Y-77846504D01*
X143928276Y-77751266D01*
X143880657Y-77656028D01*
X143833038Y-77608409D01*
X143737800Y-77560790D01*
X143547323Y-77513171D01*
X143452085Y-77465552D01*
X143404466Y-77417933D01*
X143356847Y-77322695D01*
X143356847Y-77227457D01*
X143404466Y-77132219D01*
X143452085Y-77084600D01*
X143547323Y-77036980D01*
X143785419Y-77036980D01*
X143928276Y-77084600D01*
X144261609Y-77036980D02*
X144880657Y-77036980D01*
X144547323Y-77417933D01*
X144690180Y-77417933D01*
X144785419Y-77465552D01*
X144833038Y-77513171D01*
X144880657Y-77608409D01*
X144880657Y-77846504D01*
X144833038Y-77941742D01*
X144785419Y-77989361D01*
X144690180Y-78036980D01*
X144404466Y-78036980D01*
X144309228Y-77989361D01*
X144261609Y-77941742D01*
X145261609Y-77132219D02*
X145309228Y-77084600D01*
X145404466Y-77036980D01*
X145642561Y-77036980D01*
X145737800Y-77084600D01*
X145785419Y-77132219D01*
X145833038Y-77227457D01*
X145833038Y-77322695D01*
X145785419Y-77465552D01*
X145213990Y-78036980D01*
X145833038Y-78036980D01*
X127263495Y-101096580D02*
X127263495Y-101906104D01*
X127311114Y-102001342D01*
X127358733Y-102048961D01*
X127453971Y-102096580D01*
X127644447Y-102096580D01*
X127739685Y-102048961D01*
X127787304Y-102001342D01*
X127834923Y-101906104D01*
X127834923Y-101096580D01*
X128739685Y-101096580D02*
X128549209Y-101096580D01*
X128453971Y-101144200D01*
X128406352Y-101191819D01*
X128311114Y-101334676D01*
X128263495Y-101525152D01*
X128263495Y-101906104D01*
X128311114Y-102001342D01*
X128358733Y-102048961D01*
X128453971Y-102096580D01*
X128644447Y-102096580D01*
X128739685Y-102048961D01*
X128787304Y-102001342D01*
X128834923Y-101906104D01*
X128834923Y-101668009D01*
X128787304Y-101572771D01*
X128739685Y-101525152D01*
X128644447Y-101477533D01*
X128453971Y-101477533D01*
X128358733Y-101525152D01*
X128311114Y-101572771D01*
X128263495Y-101668009D01*
X126330104Y-138815580D02*
X126139628Y-138815580D01*
X126044390Y-138863200D01*
X125996771Y-138910819D01*
X125901533Y-139053676D01*
X125853914Y-139244152D01*
X125853914Y-139625104D01*
X125901533Y-139720342D01*
X125949152Y-139767961D01*
X126044390Y-139815580D01*
X126234866Y-139815580D01*
X126330104Y-139767961D01*
X126377723Y-139720342D01*
X126425342Y-139625104D01*
X126425342Y-139387009D01*
X126377723Y-139291771D01*
X126330104Y-139244152D01*
X126234866Y-139196533D01*
X126044390Y-139196533D01*
X125949152Y-139244152D01*
X125901533Y-139291771D01*
X125853914Y-139387009D01*
X126806295Y-138910819D02*
X126853914Y-138863200D01*
X126949152Y-138815580D01*
X127187247Y-138815580D01*
X127282485Y-138863200D01*
X127330104Y-138910819D01*
X127377723Y-139006057D01*
X127377723Y-139101295D01*
X127330104Y-139244152D01*
X126758676Y-139815580D01*
X127377723Y-139815580D01*
X128234866Y-138815580D02*
X128044390Y-138815580D01*
X127949152Y-138863200D01*
X127901533Y-138910819D01*
X127806295Y-139053676D01*
X127758676Y-139244152D01*
X127758676Y-139625104D01*
X127806295Y-139720342D01*
X127853914Y-139767961D01*
X127949152Y-139815580D01*
X128139628Y-139815580D01*
X128234866Y-139767961D01*
X128282485Y-139720342D01*
X128330104Y-139625104D01*
X128330104Y-139387009D01*
X128282485Y-139291771D01*
X128234866Y-139244152D01*
X128139628Y-139196533D01*
X127949152Y-139196533D01*
X127853914Y-139244152D01*
X127806295Y-139291771D01*
X127758676Y-139387009D01*
X129187247Y-139148914D02*
X129187247Y-139815580D01*
X128949152Y-138767961D02*
X128711057Y-139482247D01*
X129330104Y-139482247D01*
X135772904Y-100020380D02*
X135772904Y-100829904D01*
X135820523Y-100925142D01*
X135868142Y-100972761D01*
X135963380Y-101020380D01*
X136153857Y-101020380D01*
X136249095Y-100972761D01*
X136296714Y-100925142D01*
X136344333Y-100829904D01*
X136344333Y-100020380D01*
X137344333Y-101020380D02*
X136772904Y-101020380D01*
X137058619Y-101020380D02*
X137058619Y-100020380D01*
X136963380Y-100163238D01*
X136868142Y-100258476D01*
X136772904Y-100306095D01*
X137677666Y-100020380D02*
X138296714Y-100020380D01*
X137963380Y-100401333D01*
X138106238Y-100401333D01*
X138201476Y-100448952D01*
X138249095Y-100496571D01*
X138296714Y-100591809D01*
X138296714Y-100829904D01*
X138249095Y-100925142D01*
X138201476Y-100972761D01*
X138106238Y-101020380D01*
X137820523Y-101020380D01*
X137725285Y-100972761D01*
X137677666Y-100925142D01*
X140845142Y-100020380D02*
X141511809Y-100020380D01*
X141083238Y-101020380D01*
X142321333Y-100353714D02*
X142321333Y-101020380D01*
X142083238Y-99972761D02*
X141845142Y-100687047D01*
X142464190Y-100687047D01*
X143321333Y-101020380D02*
X142845142Y-101020380D01*
X142845142Y-100020380D01*
X143607047Y-100972761D02*
X143749904Y-101020380D01*
X143988000Y-101020380D01*
X144083238Y-100972761D01*
X144130857Y-100925142D01*
X144178476Y-100829904D01*
X144178476Y-100734666D01*
X144130857Y-100639428D01*
X144083238Y-100591809D01*
X143988000Y-100544190D01*
X143797523Y-100496571D01*
X143702285Y-100448952D01*
X143654666Y-100401333D01*
X143607047Y-100306095D01*
X143607047Y-100210857D01*
X143654666Y-100115619D01*
X143702285Y-100068000D01*
X143797523Y-100020380D01*
X144035619Y-100020380D01*
X144178476Y-100068000D01*
X144511809Y-100020380D02*
X145130857Y-100020380D01*
X144797523Y-100401333D01*
X144940380Y-100401333D01*
X145035619Y-100448952D01*
X145083238Y-100496571D01*
X145130857Y-100591809D01*
X145130857Y-100829904D01*
X145083238Y-100925142D01*
X145035619Y-100972761D01*
X144940380Y-101020380D01*
X144654666Y-101020380D01*
X144559428Y-100972761D01*
X144511809Y-100925142D01*
X145511809Y-100115619D02*
X145559428Y-100068000D01*
X145654666Y-100020380D01*
X145892761Y-100020380D01*
X145988000Y-100068000D01*
X146035619Y-100115619D01*
X146083238Y-100210857D01*
X146083238Y-100306095D01*
X146035619Y-100448952D01*
X145464190Y-101020380D01*
X146083238Y-101020380D01*
X168049380Y-76717095D02*
X168858904Y-76717095D01*
X168954142Y-76669476D01*
X169001761Y-76621857D01*
X169049380Y-76526619D01*
X169049380Y-76336142D01*
X169001761Y-76240904D01*
X168954142Y-76193285D01*
X168858904Y-76145666D01*
X168049380Y-76145666D01*
X169049380Y-75145666D02*
X169049380Y-75717095D01*
X169049380Y-75431380D02*
X168049380Y-75431380D01*
X168192238Y-75526619D01*
X168287476Y-75621857D01*
X168335095Y-75717095D01*
X168144619Y-74764714D02*
X168097000Y-74717095D01*
X168049380Y-74621857D01*
X168049380Y-74383761D01*
X168097000Y-74288523D01*
X168144619Y-74240904D01*
X168239857Y-74193285D01*
X168335095Y-74193285D01*
X168477952Y-74240904D01*
X169049380Y-74812333D01*
X169049380Y-74193285D01*
X168049380Y-71898857D02*
X168049380Y-71232190D01*
X169049380Y-71660761D01*
X168382714Y-70422666D02*
X169049380Y-70422666D01*
X168001761Y-70660761D02*
X168716047Y-70898857D01*
X168716047Y-70279809D01*
X169049380Y-69422666D02*
X169049380Y-69898857D01*
X168049380Y-69898857D01*
X169001761Y-69136952D02*
X169049380Y-68994095D01*
X169049380Y-68756000D01*
X169001761Y-68660761D01*
X168954142Y-68613142D01*
X168858904Y-68565523D01*
X168763666Y-68565523D01*
X168668428Y-68613142D01*
X168620809Y-68660761D01*
X168573190Y-68756000D01*
X168525571Y-68946476D01*
X168477952Y-69041714D01*
X168430333Y-69089333D01*
X168335095Y-69136952D01*
X168239857Y-69136952D01*
X168144619Y-69089333D01*
X168097000Y-69041714D01*
X168049380Y-68946476D01*
X168049380Y-68708380D01*
X168097000Y-68565523D01*
X168049380Y-68232190D02*
X168049380Y-67613142D01*
X168430333Y-67946476D01*
X168430333Y-67803619D01*
X168477952Y-67708380D01*
X168525571Y-67660761D01*
X168620809Y-67613142D01*
X168858904Y-67613142D01*
X168954142Y-67660761D01*
X169001761Y-67708380D01*
X169049380Y-67803619D01*
X169049380Y-68089333D01*
X169001761Y-68184571D01*
X168954142Y-68232190D01*
X168144619Y-67232190D02*
X168097000Y-67184571D01*
X168049380Y-67089333D01*
X168049380Y-66851238D01*
X168097000Y-66756000D01*
X168144619Y-66708380D01*
X168239857Y-66660761D01*
X168335095Y-66660761D01*
X168477952Y-66708380D01*
X169049380Y-67279809D01*
X169049380Y-66660761D01*
X97562380Y-113175895D02*
X98371904Y-113175895D01*
X98467142Y-113128276D01*
X98514761Y-113080657D01*
X98562380Y-112985419D01*
X98562380Y-112794942D01*
X98514761Y-112699704D01*
X98467142Y-112652085D01*
X98371904Y-112604466D01*
X97562380Y-112604466D01*
X98562380Y-111604466D02*
X98562380Y-112175895D01*
X98562380Y-111890180D02*
X97562380Y-111890180D01*
X97705238Y-111985419D01*
X97800476Y-112080657D01*
X97848095Y-112175895D01*
X97562380Y-110985419D02*
X97562380Y-110890180D01*
X97610000Y-110794942D01*
X97657619Y-110747323D01*
X97752857Y-110699704D01*
X97943333Y-110652085D01*
X98181428Y-110652085D01*
X98371904Y-110699704D01*
X98467142Y-110747323D01*
X98514761Y-110794942D01*
X98562380Y-110890180D01*
X98562380Y-110985419D01*
X98514761Y-111080657D01*
X98467142Y-111128276D01*
X98371904Y-111175895D01*
X98181428Y-111223514D01*
X97943333Y-111223514D01*
X97752857Y-111175895D01*
X97657619Y-111128276D01*
X97610000Y-111080657D01*
X97562380Y-110985419D01*
X97562380Y-108332257D02*
X97562380Y-107665590D01*
X98562380Y-108094161D01*
X97895714Y-106856066D02*
X98562380Y-106856066D01*
X97514761Y-107094161D02*
X98229047Y-107332257D01*
X98229047Y-106713209D01*
X98562380Y-105856066D02*
X98562380Y-106332257D01*
X97562380Y-106332257D01*
X98514761Y-105570352D02*
X98562380Y-105427495D01*
X98562380Y-105189400D01*
X98514761Y-105094161D01*
X98467142Y-105046542D01*
X98371904Y-104998923D01*
X98276666Y-104998923D01*
X98181428Y-105046542D01*
X98133809Y-105094161D01*
X98086190Y-105189400D01*
X98038571Y-105379876D01*
X97990952Y-105475114D01*
X97943333Y-105522733D01*
X97848095Y-105570352D01*
X97752857Y-105570352D01*
X97657619Y-105522733D01*
X97610000Y-105475114D01*
X97562380Y-105379876D01*
X97562380Y-105141780D01*
X97610000Y-104998923D01*
X97562380Y-104665590D02*
X97562380Y-104046542D01*
X97943333Y-104379876D01*
X97943333Y-104237019D01*
X97990952Y-104141780D01*
X98038571Y-104094161D01*
X98133809Y-104046542D01*
X98371904Y-104046542D01*
X98467142Y-104094161D01*
X98514761Y-104141780D01*
X98562380Y-104237019D01*
X98562380Y-104522733D01*
X98514761Y-104617971D01*
X98467142Y-104665590D01*
X97657619Y-103665590D02*
X97610000Y-103617971D01*
X97562380Y-103522733D01*
X97562380Y-103284638D01*
X97610000Y-103189400D01*
X97657619Y-103141780D01*
X97752857Y-103094161D01*
X97848095Y-103094161D01*
X97990952Y-103141780D01*
X98562380Y-103713209D01*
X98562380Y-103094161D01*
X126669380Y-96305904D02*
X127478904Y-96305904D01*
X127574142Y-96258285D01*
X127621761Y-96210666D01*
X127669380Y-96115428D01*
X127669380Y-95924952D01*
X127621761Y-95829714D01*
X127574142Y-95782095D01*
X127478904Y-95734476D01*
X126669380Y-95734476D01*
X127097952Y-95115428D02*
X127050333Y-95210666D01*
X127002714Y-95258285D01*
X126907476Y-95305904D01*
X126859857Y-95305904D01*
X126764619Y-95258285D01*
X126717000Y-95210666D01*
X126669380Y-95115428D01*
X126669380Y-94924952D01*
X126717000Y-94829714D01*
X126764619Y-94782095D01*
X126859857Y-94734476D01*
X126907476Y-94734476D01*
X127002714Y-94782095D01*
X127050333Y-94829714D01*
X127097952Y-94924952D01*
X127097952Y-95115428D01*
X127145571Y-95210666D01*
X127193190Y-95258285D01*
X127288428Y-95305904D01*
X127478904Y-95305904D01*
X127574142Y-95258285D01*
X127621761Y-95210666D01*
X127669380Y-95115428D01*
X127669380Y-94924952D01*
X127621761Y-94829714D01*
X127574142Y-94782095D01*
X127478904Y-94734476D01*
X127288428Y-94734476D01*
X127193190Y-94782095D01*
X127145571Y-94829714D01*
X127097952Y-94924952D01*
X126690000Y-92122571D02*
X126642380Y-92217809D01*
X126642380Y-92360666D01*
X126690000Y-92503523D01*
X126785238Y-92598761D01*
X126880476Y-92646380D01*
X127070952Y-92694000D01*
X127213809Y-92694000D01*
X127404285Y-92646380D01*
X127499523Y-92598761D01*
X127594761Y-92503523D01*
X127642380Y-92360666D01*
X127642380Y-92265428D01*
X127594761Y-92122571D01*
X127547142Y-92074952D01*
X127213809Y-92074952D01*
X127213809Y-92265428D01*
X127356666Y-91694000D02*
X127356666Y-91217809D01*
X127642380Y-91789238D02*
X126642380Y-91455904D01*
X127642380Y-91122571D01*
X127642380Y-90313047D02*
X127642380Y-90789238D01*
X126642380Y-90789238D01*
X127642380Y-89455904D02*
X127642380Y-90027333D01*
X127642380Y-89741619D02*
X126642380Y-89741619D01*
X126785238Y-89836857D01*
X126880476Y-89932095D01*
X126928095Y-90027333D01*
X126642380Y-88598761D02*
X126642380Y-88789238D01*
X126690000Y-88884476D01*
X126737619Y-88932095D01*
X126880476Y-89027333D01*
X127070952Y-89074952D01*
X127451904Y-89074952D01*
X127547142Y-89027333D01*
X127594761Y-88979714D01*
X127642380Y-88884476D01*
X127642380Y-88694000D01*
X127594761Y-88598761D01*
X127547142Y-88551142D01*
X127451904Y-88503523D01*
X127213809Y-88503523D01*
X127118571Y-88551142D01*
X127070952Y-88598761D01*
X127023333Y-88694000D01*
X127023333Y-88884476D01*
X127070952Y-88979714D01*
X127118571Y-89027333D01*
X127213809Y-89074952D01*
X126642380Y-88217809D02*
X127642380Y-87884476D01*
X126642380Y-87551142D01*
X127070952Y-87074952D02*
X127023333Y-87170190D01*
X126975714Y-87217809D01*
X126880476Y-87265428D01*
X126832857Y-87265428D01*
X126737619Y-87217809D01*
X126690000Y-87170190D01*
X126642380Y-87074952D01*
X126642380Y-86884476D01*
X126690000Y-86789238D01*
X126737619Y-86741619D01*
X126832857Y-86694000D01*
X126880476Y-86694000D01*
X126975714Y-86741619D01*
X127023333Y-86789238D01*
X127070952Y-86884476D01*
X127070952Y-87074952D01*
X127118571Y-87170190D01*
X127166190Y-87217809D01*
X127261428Y-87265428D01*
X127451904Y-87265428D01*
X127547142Y-87217809D01*
X127594761Y-87170190D01*
X127642380Y-87074952D01*
X127642380Y-86884476D01*
X127594761Y-86789238D01*
X127547142Y-86741619D01*
X127451904Y-86694000D01*
X127261428Y-86694000D01*
X127166190Y-86741619D01*
X127118571Y-86789238D01*
X127070952Y-86884476D01*
X127118571Y-85932095D02*
X127166190Y-85789238D01*
X127213809Y-85741619D01*
X127309047Y-85694000D01*
X127451904Y-85694000D01*
X127547142Y-85741619D01*
X127594761Y-85789238D01*
X127642380Y-85884476D01*
X127642380Y-86265428D01*
X126642380Y-86265428D01*
X126642380Y-85932095D01*
X126690000Y-85836857D01*
X126737619Y-85789238D01*
X126832857Y-85741619D01*
X126928095Y-85741619D01*
X127023333Y-85789238D01*
X127070952Y-85836857D01*
X127118571Y-85932095D01*
X127118571Y-86265428D01*
X168102380Y-102202904D02*
X168911904Y-102202904D01*
X169007142Y-102155285D01*
X169054761Y-102107666D01*
X169102380Y-102012428D01*
X169102380Y-101821952D01*
X169054761Y-101726714D01*
X169007142Y-101679095D01*
X168911904Y-101631476D01*
X168102380Y-101631476D01*
X168435714Y-100726714D02*
X169102380Y-100726714D01*
X168054761Y-100964809D02*
X168769047Y-101202904D01*
X168769047Y-100583857D01*
X168102380Y-97606857D02*
X168102380Y-96940190D01*
X169102380Y-97368761D01*
X168435714Y-96130666D02*
X169102380Y-96130666D01*
X168054761Y-96368761D02*
X168769047Y-96606857D01*
X168769047Y-95987809D01*
X169102380Y-95130666D02*
X169102380Y-95606857D01*
X168102380Y-95606857D01*
X169054761Y-94844952D02*
X169102380Y-94702095D01*
X169102380Y-94464000D01*
X169054761Y-94368761D01*
X169007142Y-94321142D01*
X168911904Y-94273523D01*
X168816666Y-94273523D01*
X168721428Y-94321142D01*
X168673809Y-94368761D01*
X168626190Y-94464000D01*
X168578571Y-94654476D01*
X168530952Y-94749714D01*
X168483333Y-94797333D01*
X168388095Y-94844952D01*
X168292857Y-94844952D01*
X168197619Y-94797333D01*
X168150000Y-94749714D01*
X168102380Y-94654476D01*
X168102380Y-94416380D01*
X168150000Y-94273523D01*
X168102380Y-93940190D02*
X168102380Y-93321142D01*
X168483333Y-93654476D01*
X168483333Y-93511619D01*
X168530952Y-93416380D01*
X168578571Y-93368761D01*
X168673809Y-93321142D01*
X168911904Y-93321142D01*
X169007142Y-93368761D01*
X169054761Y-93416380D01*
X169102380Y-93511619D01*
X169102380Y-93797333D01*
X169054761Y-93892571D01*
X169007142Y-93940190D01*
X168197619Y-92940190D02*
X168150000Y-92892571D01*
X168102380Y-92797333D01*
X168102380Y-92559238D01*
X168150000Y-92464000D01*
X168197619Y-92416380D01*
X168292857Y-92368761D01*
X168388095Y-92368761D01*
X168530952Y-92416380D01*
X169102380Y-92987809D01*
X169102380Y-92368761D01*
X138720095Y-140088380D02*
X138720095Y-140897904D01*
X138767714Y-140993142D01*
X138815333Y-141040761D01*
X138910571Y-141088380D01*
X139101047Y-141088380D01*
X139196285Y-141040761D01*
X139243904Y-140993142D01*
X139291523Y-140897904D01*
X139291523Y-140088380D01*
X139720095Y-140183619D02*
X139767714Y-140136000D01*
X139862952Y-140088380D01*
X140101047Y-140088380D01*
X140196285Y-140136000D01*
X140243904Y-140183619D01*
X140291523Y-140278857D01*
X140291523Y-140374095D01*
X140243904Y-140516952D01*
X139672476Y-141088380D01*
X140291523Y-141088380D01*
X142712952Y-140088380D02*
X143379619Y-140088380D01*
X142951047Y-141088380D01*
X144189142Y-140421714D02*
X144189142Y-141088380D01*
X143951047Y-140040761D02*
X143712952Y-140755047D01*
X144332000Y-140755047D01*
X145189142Y-141088380D02*
X144712952Y-141088380D01*
X144712952Y-140088380D01*
X145474857Y-141040761D02*
X145617714Y-141088380D01*
X145855809Y-141088380D01*
X145951047Y-141040761D01*
X145998666Y-140993142D01*
X146046285Y-140897904D01*
X146046285Y-140802666D01*
X145998666Y-140707428D01*
X145951047Y-140659809D01*
X145855809Y-140612190D01*
X145665333Y-140564571D01*
X145570095Y-140516952D01*
X145522476Y-140469333D01*
X145474857Y-140374095D01*
X145474857Y-140278857D01*
X145522476Y-140183619D01*
X145570095Y-140136000D01*
X145665333Y-140088380D01*
X145903428Y-140088380D01*
X146046285Y-140136000D01*
X146998666Y-141088380D02*
X146427238Y-141088380D01*
X146712952Y-141088380D02*
X146712952Y-140088380D01*
X146617714Y-140231238D01*
X146522476Y-140326476D01*
X146427238Y-140374095D01*
X147379619Y-140183619D02*
X147427238Y-140136000D01*
X147522476Y-140088380D01*
X147760571Y-140088380D01*
X147855809Y-140136000D01*
X147903428Y-140183619D01*
X147951047Y-140278857D01*
X147951047Y-140374095D01*
X147903428Y-140516952D01*
X147332000Y-141088380D01*
X147951047Y-141088380D01*
X148855809Y-140088380D02*
X148379619Y-140088380D01*
X148332000Y-140564571D01*
X148379619Y-140516952D01*
X148474857Y-140469333D01*
X148712952Y-140469333D01*
X148808190Y-140516952D01*
X148855809Y-140564571D01*
X148903428Y-140659809D01*
X148903428Y-140897904D01*
X148855809Y-140993142D01*
X148808190Y-141040761D01*
X148712952Y-141088380D01*
X148474857Y-141088380D01*
X148379619Y-141040761D01*
X148332000Y-140993142D01*
X151274095Y-140128380D02*
X151274095Y-140937904D01*
X151321714Y-141033142D01*
X151369333Y-141080761D01*
X151464571Y-141128380D01*
X151655047Y-141128380D01*
X151750285Y-141080761D01*
X151797904Y-141033142D01*
X151845523Y-140937904D01*
X151845523Y-140128380D01*
X152845523Y-141128380D02*
X152274095Y-141128380D01*
X152559809Y-141128380D02*
X152559809Y-140128380D01*
X152464571Y-140271238D01*
X152369333Y-140366476D01*
X152274095Y-140414095D01*
X154235142Y-140062380D02*
X154901809Y-140062380D01*
X154473238Y-141062380D01*
X155711333Y-140395714D02*
X155711333Y-141062380D01*
X155473238Y-140014761D02*
X155235142Y-140729047D01*
X155854190Y-140729047D01*
X156711333Y-141062380D02*
X156235142Y-141062380D01*
X156235142Y-140062380D01*
X156997047Y-141014761D02*
X157139904Y-141062380D01*
X157378000Y-141062380D01*
X157473238Y-141014761D01*
X157520857Y-140967142D01*
X157568476Y-140871904D01*
X157568476Y-140776666D01*
X157520857Y-140681428D01*
X157473238Y-140633809D01*
X157378000Y-140586190D01*
X157187523Y-140538571D01*
X157092285Y-140490952D01*
X157044666Y-140443333D01*
X156997047Y-140348095D01*
X156997047Y-140252857D01*
X157044666Y-140157619D01*
X157092285Y-140110000D01*
X157187523Y-140062380D01*
X157425619Y-140062380D01*
X157568476Y-140110000D01*
X158425619Y-140062380D02*
X158235142Y-140062380D01*
X158139904Y-140110000D01*
X158092285Y-140157619D01*
X157997047Y-140300476D01*
X157949428Y-140490952D01*
X157949428Y-140871904D01*
X157997047Y-140967142D01*
X158044666Y-141014761D01*
X158139904Y-141062380D01*
X158330380Y-141062380D01*
X158425619Y-141014761D01*
X158473238Y-140967142D01*
X158520857Y-140871904D01*
X158520857Y-140633809D01*
X158473238Y-140538571D01*
X158425619Y-140490952D01*
X158330380Y-140443333D01*
X158139904Y-140443333D01*
X158044666Y-140490952D01*
X157997047Y-140538571D01*
X157949428Y-140633809D01*
X158854190Y-140062380D02*
X159520857Y-140062380D01*
X159092285Y-141062380D01*
X160092285Y-140062380D02*
X160187523Y-140062380D01*
X160282761Y-140110000D01*
X160330380Y-140157619D01*
X160378000Y-140252857D01*
X160425619Y-140443333D01*
X160425619Y-140681428D01*
X160378000Y-140871904D01*
X160330380Y-140967142D01*
X160282761Y-141014761D01*
X160187523Y-141062380D01*
X160092285Y-141062380D01*
X159997047Y-141014761D01*
X159949428Y-140967142D01*
X159901809Y-140871904D01*
X159854190Y-140681428D01*
X159854190Y-140443333D01*
X159901809Y-140252857D01*
X159949428Y-140157619D01*
X159997047Y-140110000D01*
X160092285Y-140062380D01*
X160854190Y-141062380D02*
X160854190Y-140062380D01*
X161425619Y-141062380D01*
X161425619Y-140062380D01*
X113880380Y-75738095D02*
X112880380Y-75738095D01*
X112880380Y-75500000D01*
X112928000Y-75357142D01*
X113023238Y-75261904D01*
X113118476Y-75214285D01*
X113308952Y-75166666D01*
X113451809Y-75166666D01*
X113642285Y-75214285D01*
X113737523Y-75261904D01*
X113832761Y-75357142D01*
X113880380Y-75500000D01*
X113880380Y-75738095D01*
X113880380Y-74214285D02*
X113880380Y-74785714D01*
X113880380Y-74500000D02*
X112880380Y-74500000D01*
X113023238Y-74595238D01*
X113118476Y-74690476D01*
X113166095Y-74785714D01*
X120484380Y-75642857D02*
X120484380Y-76119047D01*
X119484380Y-76119047D01*
X119960571Y-75309523D02*
X119960571Y-74976190D01*
X120484380Y-74833333D02*
X120484380Y-75309523D01*
X119484380Y-75309523D01*
X119484380Y-74833333D01*
X120484380Y-74404761D02*
X119484380Y-74404761D01*
X119484380Y-74166666D01*
X119532000Y-74023809D01*
X119627238Y-73928571D01*
X119722476Y-73880952D01*
X119912952Y-73833333D01*
X120055809Y-73833333D01*
X120246285Y-73880952D01*
X120341523Y-73928571D01*
X120436761Y-74023809D01*
X120484380Y-74166666D01*
X120484380Y-74404761D01*
M02*
