G04 #@! TF.GenerationSoftware,KiCad,Pcbnew,(5.1.6)-1*
G04 #@! TF.CreationDate,2020-12-01T23:33:15+02:00*
G04 #@! TF.ProjectId,ZX_Multiface_3_1_4D,5a585f4d-756c-4746-9966-6163655f335f,rev?*
G04 #@! TF.SameCoordinates,Original*
G04 #@! TF.FileFunction,Paste,Bot*
G04 #@! TF.FilePolarity,Positive*
%FSLAX46Y46*%
G04 Gerber Fmt 4.6, Leading zero omitted, Abs format (unit mm)*
G04 Created by KiCad (PCBNEW (5.1.6)-1) date 2020-12-01 23:33:15*
%MOMM*%
%LPD*%
G01*
G04 APERTURE LIST*
G04 APERTURE END LIST*
G36*
G01*
X102679000Y-63687800D02*
X102679000Y-64937800D01*
G75*
G02*
X102429000Y-65187800I-250000J0D01*
G01*
X101504000Y-65187800D01*
G75*
G02*
X101254000Y-64937800I0J250000D01*
G01*
X101254000Y-63687800D01*
G75*
G02*
X101504000Y-63437800I250000J0D01*
G01*
X102429000Y-63437800D01*
G75*
G02*
X102679000Y-63687800I0J-250000D01*
G01*
G37*
G36*
G01*
X105654000Y-63687800D02*
X105654000Y-64937800D01*
G75*
G02*
X105404000Y-65187800I-250000J0D01*
G01*
X104479000Y-65187800D01*
G75*
G02*
X104229000Y-64937800I0J250000D01*
G01*
X104229000Y-63687800D01*
G75*
G02*
X104479000Y-63437800I250000J0D01*
G01*
X105404000Y-63437800D01*
G75*
G02*
X105654000Y-63687800I0J-250000D01*
G01*
G37*
G36*
G01*
X92319000Y-94068600D02*
X91069000Y-94068600D01*
G75*
G02*
X90819000Y-93818600I0J250000D01*
G01*
X90819000Y-92893600D01*
G75*
G02*
X91069000Y-92643600I250000J0D01*
G01*
X92319000Y-92643600D01*
G75*
G02*
X92569000Y-92893600I0J-250000D01*
G01*
X92569000Y-93818600D01*
G75*
G02*
X92319000Y-94068600I-250000J0D01*
G01*
G37*
G36*
G01*
X92319000Y-97043600D02*
X91069000Y-97043600D01*
G75*
G02*
X90819000Y-96793600I0J250000D01*
G01*
X90819000Y-95868600D01*
G75*
G02*
X91069000Y-95618600I250000J0D01*
G01*
X92319000Y-95618600D01*
G75*
G02*
X92569000Y-95868600I0J-250000D01*
G01*
X92569000Y-96793600D01*
G75*
G02*
X92319000Y-97043600I-250000J0D01*
G01*
G37*
G36*
G01*
X128409000Y-82890200D02*
X128409000Y-84140200D01*
G75*
G02*
X128159000Y-84390200I-250000J0D01*
G01*
X127234000Y-84390200D01*
G75*
G02*
X126984000Y-84140200I0J250000D01*
G01*
X126984000Y-82890200D01*
G75*
G02*
X127234000Y-82640200I250000J0D01*
G01*
X128159000Y-82640200D01*
G75*
G02*
X128409000Y-82890200I0J-250000D01*
G01*
G37*
G36*
G01*
X131384000Y-82890200D02*
X131384000Y-84140200D01*
G75*
G02*
X131134000Y-84390200I-250000J0D01*
G01*
X130209000Y-84390200D01*
G75*
G02*
X129959000Y-84140200I0J250000D01*
G01*
X129959000Y-82890200D01*
G75*
G02*
X130209000Y-82640200I250000J0D01*
G01*
X131134000Y-82640200D01*
G75*
G02*
X131384000Y-82890200I0J-250000D01*
G01*
G37*
G36*
G01*
X117463000Y-80228600D02*
X117463000Y-78978600D01*
G75*
G02*
X117713000Y-78728600I250000J0D01*
G01*
X118638000Y-78728600D01*
G75*
G02*
X118888000Y-78978600I0J-250000D01*
G01*
X118888000Y-80228600D01*
G75*
G02*
X118638000Y-80478600I-250000J0D01*
G01*
X117713000Y-80478600D01*
G75*
G02*
X117463000Y-80228600I0J250000D01*
G01*
G37*
G36*
G01*
X114488000Y-80228600D02*
X114488000Y-78978600D01*
G75*
G02*
X114738000Y-78728600I250000J0D01*
G01*
X115663000Y-78728600D01*
G75*
G02*
X115913000Y-78978600I0J-250000D01*
G01*
X115913000Y-80228600D01*
G75*
G02*
X115663000Y-80478600I-250000J0D01*
G01*
X114738000Y-80478600D01*
G75*
G02*
X114488000Y-80228600I0J250000D01*
G01*
G37*
G36*
G01*
X144643000Y-104813000D02*
X143393000Y-104813000D01*
G75*
G02*
X143143000Y-104563000I0J250000D01*
G01*
X143143000Y-103638000D01*
G75*
G02*
X143393000Y-103388000I250000J0D01*
G01*
X144643000Y-103388000D01*
G75*
G02*
X144893000Y-103638000I0J-250000D01*
G01*
X144893000Y-104563000D01*
G75*
G02*
X144643000Y-104813000I-250000J0D01*
G01*
G37*
G36*
G01*
X144643000Y-107788000D02*
X143393000Y-107788000D01*
G75*
G02*
X143143000Y-107538000I0J250000D01*
G01*
X143143000Y-106613000D01*
G75*
G02*
X143393000Y-106363000I250000J0D01*
G01*
X144643000Y-106363000D01*
G75*
G02*
X144893000Y-106613000I0J-250000D01*
G01*
X144893000Y-107538000D01*
G75*
G02*
X144643000Y-107788000I-250000J0D01*
G01*
G37*
G36*
G01*
X141265000Y-83705400D02*
X140015000Y-83705400D01*
G75*
G02*
X139765000Y-83455400I0J250000D01*
G01*
X139765000Y-82530400D01*
G75*
G02*
X140015000Y-82280400I250000J0D01*
G01*
X141265000Y-82280400D01*
G75*
G02*
X141515000Y-82530400I0J-250000D01*
G01*
X141515000Y-83455400D01*
G75*
G02*
X141265000Y-83705400I-250000J0D01*
G01*
G37*
G36*
G01*
X141265000Y-86680400D02*
X140015000Y-86680400D01*
G75*
G02*
X139765000Y-86430400I0J250000D01*
G01*
X139765000Y-85505400D01*
G75*
G02*
X140015000Y-85255400I250000J0D01*
G01*
X141265000Y-85255400D01*
G75*
G02*
X141515000Y-85505400I0J-250000D01*
G01*
X141515000Y-86430400D01*
G75*
G02*
X141265000Y-86680400I-250000J0D01*
G01*
G37*
G36*
G01*
X151829000Y-70977600D02*
X151829000Y-72227600D01*
G75*
G02*
X151579000Y-72477600I-250000J0D01*
G01*
X150654000Y-72477600D01*
G75*
G02*
X150404000Y-72227600I0J250000D01*
G01*
X150404000Y-70977600D01*
G75*
G02*
X150654000Y-70727600I250000J0D01*
G01*
X151579000Y-70727600D01*
G75*
G02*
X151829000Y-70977600I0J-250000D01*
G01*
G37*
G36*
G01*
X154804000Y-70977600D02*
X154804000Y-72227600D01*
G75*
G02*
X154554000Y-72477600I-250000J0D01*
G01*
X153629000Y-72477600D01*
G75*
G02*
X153379000Y-72227600I0J250000D01*
G01*
X153379000Y-70977600D01*
G75*
G02*
X153629000Y-70727600I250000J0D01*
G01*
X154554000Y-70727600D01*
G75*
G02*
X154804000Y-70977600I0J-250000D01*
G01*
G37*
G36*
G01*
X141341000Y-60693000D02*
X140091000Y-60693000D01*
G75*
G02*
X139841000Y-60443000I0J250000D01*
G01*
X139841000Y-59518000D01*
G75*
G02*
X140091000Y-59268000I250000J0D01*
G01*
X141341000Y-59268000D01*
G75*
G02*
X141591000Y-59518000I0J-250000D01*
G01*
X141591000Y-60443000D01*
G75*
G02*
X141341000Y-60693000I-250000J0D01*
G01*
G37*
G36*
G01*
X141341000Y-63668000D02*
X140091000Y-63668000D01*
G75*
G02*
X139841000Y-63418000I0J250000D01*
G01*
X139841000Y-62493000D01*
G75*
G02*
X140091000Y-62243000I250000J0D01*
G01*
X141341000Y-62243000D01*
G75*
G02*
X141591000Y-62493000I0J-250000D01*
G01*
X141591000Y-63418000D01*
G75*
G02*
X141341000Y-63668000I-250000J0D01*
G01*
G37*
G36*
G01*
X81216200Y-107706000D02*
X81216200Y-108956000D01*
G75*
G02*
X80966200Y-109206000I-250000J0D01*
G01*
X80041200Y-109206000D01*
G75*
G02*
X79791200Y-108956000I0J250000D01*
G01*
X79791200Y-107706000D01*
G75*
G02*
X80041200Y-107456000I250000J0D01*
G01*
X80966200Y-107456000D01*
G75*
G02*
X81216200Y-107706000I0J-250000D01*
G01*
G37*
G36*
G01*
X84191200Y-107706000D02*
X84191200Y-108956000D01*
G75*
G02*
X83941200Y-109206000I-250000J0D01*
G01*
X83016200Y-109206000D01*
G75*
G02*
X82766200Y-108956000I0J250000D01*
G01*
X82766200Y-107706000D01*
G75*
G02*
X83016200Y-107456000I250000J0D01*
G01*
X83941200Y-107456000D01*
G75*
G02*
X84191200Y-107706000I0J-250000D01*
G01*
G37*
G36*
G01*
X92242800Y-119723000D02*
X90992800Y-119723000D01*
G75*
G02*
X90742800Y-119473000I0J250000D01*
G01*
X90742800Y-118548000D01*
G75*
G02*
X90992800Y-118298000I250000J0D01*
G01*
X92242800Y-118298000D01*
G75*
G02*
X92492800Y-118548000I0J-250000D01*
G01*
X92492800Y-119473000D01*
G75*
G02*
X92242800Y-119723000I-250000J0D01*
G01*
G37*
G36*
G01*
X92242800Y-122698000D02*
X90992800Y-122698000D01*
G75*
G02*
X90742800Y-122448000I0J250000D01*
G01*
X90742800Y-121523000D01*
G75*
G02*
X90992800Y-121273000I250000J0D01*
G01*
X92242800Y-121273000D01*
G75*
G02*
X92492800Y-121523000I0J-250000D01*
G01*
X92492800Y-122448000D01*
G75*
G02*
X92242800Y-122698000I-250000J0D01*
G01*
G37*
G36*
G01*
X102755000Y-90738800D02*
X102755000Y-91988800D01*
G75*
G02*
X102505000Y-92238800I-250000J0D01*
G01*
X101580000Y-92238800D01*
G75*
G02*
X101330000Y-91988800I0J250000D01*
G01*
X101330000Y-90738800D01*
G75*
G02*
X101580000Y-90488800I250000J0D01*
G01*
X102505000Y-90488800D01*
G75*
G02*
X102755000Y-90738800I0J-250000D01*
G01*
G37*
G36*
G01*
X105730000Y-90738800D02*
X105730000Y-91988800D01*
G75*
G02*
X105480000Y-92238800I-250000J0D01*
G01*
X104555000Y-92238800D01*
G75*
G02*
X104305000Y-91988800I0J250000D01*
G01*
X104305000Y-90738800D01*
G75*
G02*
X104555000Y-90488800I250000J0D01*
G01*
X105480000Y-90488800D01*
G75*
G02*
X105730000Y-90738800I0J-250000D01*
G01*
G37*
G36*
G01*
X151701000Y-83753800D02*
X151701000Y-85003800D01*
G75*
G02*
X151451000Y-85253800I-250000J0D01*
G01*
X150526000Y-85253800D01*
G75*
G02*
X150276000Y-85003800I0J250000D01*
G01*
X150276000Y-83753800D01*
G75*
G02*
X150526000Y-83503800I250000J0D01*
G01*
X151451000Y-83503800D01*
G75*
G02*
X151701000Y-83753800I0J-250000D01*
G01*
G37*
G36*
G01*
X154676000Y-83753800D02*
X154676000Y-85003800D01*
G75*
G02*
X154426000Y-85253800I-250000J0D01*
G01*
X153501000Y-85253800D01*
G75*
G02*
X153251000Y-85003800I0J250000D01*
G01*
X153251000Y-83753800D01*
G75*
G02*
X153501000Y-83503800I250000J0D01*
G01*
X154426000Y-83503800D01*
G75*
G02*
X154676000Y-83753800I0J-250000D01*
G01*
G37*
G36*
G01*
X132476000Y-104711000D02*
X131226000Y-104711000D01*
G75*
G02*
X130976000Y-104461000I0J250000D01*
G01*
X130976000Y-103536000D01*
G75*
G02*
X131226000Y-103286000I250000J0D01*
G01*
X132476000Y-103286000D01*
G75*
G02*
X132726000Y-103536000I0J-250000D01*
G01*
X132726000Y-104461000D01*
G75*
G02*
X132476000Y-104711000I-250000J0D01*
G01*
G37*
G36*
G01*
X132476000Y-107686000D02*
X131226000Y-107686000D01*
G75*
G02*
X130976000Y-107436000I0J250000D01*
G01*
X130976000Y-106511000D01*
G75*
G02*
X131226000Y-106261000I250000J0D01*
G01*
X132476000Y-106261000D01*
G75*
G02*
X132726000Y-106511000I0J-250000D01*
G01*
X132726000Y-107436000D01*
G75*
G02*
X132476000Y-107686000I-250000J0D01*
G01*
G37*
G36*
G01*
X112461000Y-104711000D02*
X111211000Y-104711000D01*
G75*
G02*
X110961000Y-104461000I0J250000D01*
G01*
X110961000Y-103536000D01*
G75*
G02*
X111211000Y-103286000I250000J0D01*
G01*
X112461000Y-103286000D01*
G75*
G02*
X112711000Y-103536000I0J-250000D01*
G01*
X112711000Y-104461000D01*
G75*
G02*
X112461000Y-104711000I-250000J0D01*
G01*
G37*
G36*
G01*
X112461000Y-107686000D02*
X111211000Y-107686000D01*
G75*
G02*
X110961000Y-107436000I0J250000D01*
G01*
X110961000Y-106511000D01*
G75*
G02*
X111211000Y-106261000I250000J0D01*
G01*
X112461000Y-106261000D01*
G75*
G02*
X112711000Y-106511000I0J-250000D01*
G01*
X112711000Y-107436000D01*
G75*
G02*
X112461000Y-107686000I-250000J0D01*
G01*
G37*
G36*
G01*
X151803000Y-96707800D02*
X151803000Y-97957800D01*
G75*
G02*
X151553000Y-98207800I-250000J0D01*
G01*
X150628000Y-98207800D01*
G75*
G02*
X150378000Y-97957800I0J250000D01*
G01*
X150378000Y-96707800D01*
G75*
G02*
X150628000Y-96457800I250000J0D01*
G01*
X151553000Y-96457800D01*
G75*
G02*
X151803000Y-96707800I0J-250000D01*
G01*
G37*
G36*
G01*
X154778000Y-96707800D02*
X154778000Y-97957800D01*
G75*
G02*
X154528000Y-98207800I-250000J0D01*
G01*
X153603000Y-98207800D01*
G75*
G02*
X153353000Y-97957800I0J250000D01*
G01*
X153353000Y-96707800D01*
G75*
G02*
X153603000Y-96457800I250000J0D01*
G01*
X154528000Y-96457800D01*
G75*
G02*
X154778000Y-96707800I0J-250000D01*
G01*
G37*
G36*
G01*
X151701000Y-109332000D02*
X151701000Y-110582000D01*
G75*
G02*
X151451000Y-110832000I-250000J0D01*
G01*
X150526000Y-110832000D01*
G75*
G02*
X150276000Y-110582000I0J250000D01*
G01*
X150276000Y-109332000D01*
G75*
G02*
X150526000Y-109082000I250000J0D01*
G01*
X151451000Y-109082000D01*
G75*
G02*
X151701000Y-109332000I0J-250000D01*
G01*
G37*
G36*
G01*
X154676000Y-109332000D02*
X154676000Y-110582000D01*
G75*
G02*
X154426000Y-110832000I-250000J0D01*
G01*
X153501000Y-110832000D01*
G75*
G02*
X153251000Y-110582000I0J250000D01*
G01*
X153251000Y-109332000D01*
G75*
G02*
X153501000Y-109082000I250000J0D01*
G01*
X154426000Y-109082000D01*
G75*
G02*
X154676000Y-109332000I0J-250000D01*
G01*
G37*
G36*
G01*
X146974000Y-118479000D02*
X148224000Y-118479000D01*
G75*
G02*
X148474000Y-118729000I0J-250000D01*
G01*
X148474000Y-119654000D01*
G75*
G02*
X148224000Y-119904000I-250000J0D01*
G01*
X146974000Y-119904000D01*
G75*
G02*
X146724000Y-119654000I0J250000D01*
G01*
X146724000Y-118729000D01*
G75*
G02*
X146974000Y-118479000I250000J0D01*
G01*
G37*
G36*
G01*
X146974000Y-115504000D02*
X148224000Y-115504000D01*
G75*
G02*
X148474000Y-115754000I0J-250000D01*
G01*
X148474000Y-116679000D01*
G75*
G02*
X148224000Y-116929000I-250000J0D01*
G01*
X146974000Y-116929000D01*
G75*
G02*
X146724000Y-116679000I0J250000D01*
G01*
X146724000Y-115754000D01*
G75*
G02*
X146974000Y-115504000I250000J0D01*
G01*
G37*
G36*
G01*
X164658000Y-121272000D02*
X163408000Y-121272000D01*
G75*
G02*
X163158000Y-121022000I0J250000D01*
G01*
X163158000Y-120097000D01*
G75*
G02*
X163408000Y-119847000I250000J0D01*
G01*
X164658000Y-119847000D01*
G75*
G02*
X164908000Y-120097000I0J-250000D01*
G01*
X164908000Y-121022000D01*
G75*
G02*
X164658000Y-121272000I-250000J0D01*
G01*
G37*
G36*
G01*
X164658000Y-124247000D02*
X163408000Y-124247000D01*
G75*
G02*
X163158000Y-123997000I0J250000D01*
G01*
X163158000Y-123072000D01*
G75*
G02*
X163408000Y-122822000I250000J0D01*
G01*
X164658000Y-122822000D01*
G75*
G02*
X164908000Y-123072000I0J-250000D01*
G01*
X164908000Y-123997000D01*
G75*
G02*
X164658000Y-124247000I-250000J0D01*
G01*
G37*
M02*
