M48
METRIC,TZ
T1C0.500
T2C0.800
T3C0.900
T4C1.000
T5C1.100
T6C3.200
T7C3.500
%
G90
G05
T1
X85446Y-109641
X87856Y-100838
X89193Y-65425
X90227Y-101615
X92000Y-113430
X93630Y-120478
X93649Y-125599
X96052Y-99475
X98055Y-70310
X99307Y-144330
X102052Y-143330
X102314Y-138352
X109212Y-105930
X109420Y-102321
X110867Y-133320
X110990Y-101395
X111602Y-134353
X111926Y-99730
X112574Y-100851
X113774Y-100282
X115699Y-141396
X122494Y-118814
X122863Y-120374
X124600Y-83045
X124744Y-114160
X124860Y-106974
X125644Y-116630
X125796Y-90045
X126956Y-141553
X126976Y-111443
X126976Y-121552
X127105Y-102253
X127856Y-123620
X128192Y-126077
X129014Y-125131
X129124Y-94131
X129938Y-63440
X130098Y-110297
X130324Y-85908
X130494Y-64731
X130562Y-129905
X130661Y-97944
X131295Y-127141
X131351Y-85167
X131440Y-89401
X131542Y-129102
X131753Y-81270
X132015Y-134672
X132616Y-130256
X132696Y-94959
X133186Y-57951
X133545Y-135760
X133753Y-99676
X136858Y-144859
X138518Y-103102
X138750Y-111415
X140390Y-144309
X140562Y-81458
X142030Y-126590
X142114Y-102587
X143164Y-111415
X144123Y-142486
X144239Y-77888
X144758Y-115023
X144901Y-116273
X145459Y-112315
X145620Y-139670
X145931Y-119756
X146604Y-78571
X146820Y-145009
X148015Y-88177
X148052Y-101042
X148158Y-79496
X148694Y-85076
X149200Y-94045
X149396Y-145009
X150280Y-116786
X155622Y-140515
X156534Y-125091
X157141Y-132825
X165790Y-143066
X93875Y-60000
X94644Y-58144
X94644Y-61856
X96500Y-57375
X96500Y-62625
X98356Y-58144
X98356Y-61856
X99125Y-60000
X79375Y-133500
X80144Y-131644
X80144Y-135356
X82000Y-130875
X82000Y-136125
X83856Y-131644
X83856Y-135356
X84625Y-133500
X163375Y-60000
X164144Y-58144
X164144Y-61856
X166000Y-57375
X166000Y-62625
X167856Y-58144
X167856Y-61856
X168625Y-60000
X163375Y-133500
X164144Y-131644
X164144Y-135356
X166000Y-130875
X166000Y-136125
X167856Y-131644
X167856Y-135356
X168625Y-133500
T2
X88000Y-119000
X88000Y-121540
X88000Y-124080
X88000Y-126620
X88000Y-129160
X88000Y-131700
X88000Y-134240
X95620Y-119000
X95620Y-121540
X95620Y-124080
X95620Y-126620
X95620Y-129160
X95620Y-131700
X95620Y-134240
X102000Y-60380
X102000Y-68000
X104540Y-60380
X104540Y-68000
X107080Y-60380
X107080Y-68000
X109620Y-60380
X109620Y-68000
X112160Y-60380
X112160Y-68000
X114700Y-60380
X114700Y-68000
X117240Y-60380
X117240Y-68000
X119780Y-60380
X119780Y-68000
X122320Y-60380
X122320Y-68000
X124860Y-60380
X124860Y-68000
X127400Y-60380
X127400Y-68000
X129940Y-60380
X129940Y-68000
X137000Y-60000
X137000Y-62540
X137000Y-65080
X137000Y-67620
X137000Y-70160
X137000Y-72700
X137000Y-75240
X144620Y-60000
X144620Y-62540
X144620Y-65080
X144620Y-67620
X144620Y-70160
X144620Y-72700
X144620Y-75240
X152500Y-120500
X152500Y-123040
X152500Y-125580
X152500Y-128120
X152500Y-130660
X152500Y-133200
X152500Y-135740
X152500Y-138280
X160120Y-120500
X160120Y-123040
X160120Y-125580
X160120Y-128120
X160120Y-130660
X160120Y-133200
X160120Y-135740
X160120Y-138280
X137000Y-83000
X137000Y-85540
X137000Y-88080
X137000Y-90620
X137000Y-93160
X137000Y-95700
X137000Y-98240
X144620Y-83000
X144620Y-85540
X144620Y-88080
X144620Y-90620
X144620Y-93160
X144620Y-95700
X144620Y-98240
X80000Y-93500
X80000Y-96040
X87620Y-93500
X87620Y-96040
X151000Y-67880
X151000Y-75500
X153540Y-67880
X153540Y-75500
X156080Y-67880
X156080Y-75500
X158620Y-67880
X158620Y-75500
X161160Y-67880
X161160Y-75500
X163700Y-67880
X163700Y-75500
X166240Y-67880
X166240Y-75500
X102000Y-87380
X102000Y-95000
X104540Y-87380
X104540Y-95000
X107080Y-87380
X107080Y-95000
X109620Y-87380
X109620Y-95000
X112160Y-87380
X112160Y-95000
X114700Y-87380
X114700Y-95000
X117240Y-87380
X117240Y-95000
X119780Y-87380
X119780Y-95000
X122320Y-87380
X122320Y-95000
X124860Y-87380
X124860Y-95000
X151000Y-105880
X151000Y-113500
X153540Y-105880
X153540Y-113500
X156080Y-105880
X156080Y-113500
X158620Y-105880
X158620Y-113500
X161160Y-105880
X161160Y-113500
X163700Y-105880
X163700Y-113500
X166240Y-105880
X166240Y-113500
X120500Y-104000
X120500Y-106540
X120500Y-109080
X120500Y-111620
X120500Y-114160
X120500Y-116700
X120500Y-119240
X120500Y-121780
X120500Y-124320
X120500Y-126860
X120500Y-129400
X120500Y-131940
X120500Y-134480
X120500Y-137020
X135740Y-104000
X135740Y-106540
X135740Y-109080
X135740Y-111620
X135740Y-114160
X135740Y-116700
X135740Y-119240
X135740Y-121780
X135740Y-124320
X135740Y-126860
X135740Y-129400
X135740Y-131940
X135740Y-134480
X135740Y-137020
X140000Y-123000
X140000Y-125540
X140000Y-128080
X140000Y-130620
X140000Y-133160
X140000Y-135700
X140000Y-138240
X147620Y-123000
X147620Y-125540
X147620Y-128080
X147620Y-130620
X147620Y-133160
X147620Y-135700
X147620Y-138240
X151000Y-93380
X151000Y-101000
X153540Y-93380
X153540Y-101000
X156080Y-93380
X156080Y-101000
X158620Y-93380
X158620Y-101000
X161160Y-93380
X161160Y-101000
X163700Y-93380
X163700Y-101000
X166240Y-93380
X166240Y-101000
X80500Y-104380
X80500Y-112000
X83040Y-104380
X83040Y-112000
X85580Y-104380
X85580Y-112000
X88120Y-104380
X88120Y-112000
X90660Y-104380
X90660Y-112000
X93200Y-104380
X93200Y-112000
X95740Y-104380
X95740Y-112000
X151000Y-80380
X151000Y-88000
X153540Y-80380
X153540Y-88000
X156080Y-80380
X156080Y-88000
X158620Y-80380
X158620Y-88000
X161160Y-80380
X161160Y-88000
X163700Y-80380
X163700Y-88000
X166240Y-80380
X166240Y-88000
X100500Y-104000
X100500Y-106540
X100500Y-109080
X100500Y-111620
X100500Y-114160
X100500Y-116700
X100500Y-119240
X100500Y-121780
X100500Y-124320
X100500Y-126860
X100500Y-129400
X100500Y-131940
X100500Y-134480
X100500Y-137020
X115740Y-104000
X115740Y-106540
X115740Y-109080
X115740Y-111620
X115740Y-114160
X115740Y-116700
X115740Y-119240
X115740Y-121780
X115740Y-124320
X115740Y-126860
X115740Y-129400
X115740Y-131940
X115740Y-134480
X115740Y-137020
T3
X115460Y-75000
X118000Y-75000
T4
X86160Y-70385
X86160Y-73155
X86160Y-75925
X86160Y-78695
X89000Y-69000
X89000Y-71770
X89000Y-74540
X89000Y-77310
X89000Y-80080
T5
X102000Y-75000
X102000Y-79500
X108500Y-75000
X108500Y-79500
X126000Y-75000
X126000Y-79500
X132500Y-75000
X132500Y-79500
T6
X88700Y-62040
X88700Y-87040
T7
X96500Y-60000
X82000Y-133500
X166000Y-60000
X166000Y-133500
T0
M30
