G04 #@! TF.GenerationSoftware,KiCad,Pcbnew,(5.1.6)-1*
G04 #@! TF.CreationDate,2020-12-01T23:33:15+02:00*
G04 #@! TF.ProjectId,ZX_Multiface_3_1_4D,5a585f4d-756c-4746-9966-6163655f335f,rev?*
G04 #@! TF.SameCoordinates,Original*
G04 #@! TF.FileFunction,Copper,L1,Top*
G04 #@! TF.FilePolarity,Positive*
%FSLAX46Y46*%
G04 Gerber Fmt 4.6, Leading zero omitted, Abs format (unit mm)*
G04 Created by KiCad (PCBNEW (5.1.6)-1) date 2020-12-01 23:33:15*
%MOMM*%
%LPD*%
G01*
G04 APERTURE LIST*
G04 #@! TA.AperFunction,ComponentPad*
%ADD10O,1.600000X2.400000*%
G04 #@! TD*
G04 #@! TA.AperFunction,ComponentPad*
%ADD11R,1.600000X2.400000*%
G04 #@! TD*
G04 #@! TA.AperFunction,ComponentPad*
%ADD12O,1.600000X1.600000*%
G04 #@! TD*
G04 #@! TA.AperFunction,ComponentPad*
%ADD13R,1.600000X1.600000*%
G04 #@! TD*
G04 #@! TA.AperFunction,ComponentPad*
%ADD14C,4.000000*%
G04 #@! TD*
G04 #@! TA.AperFunction,ComponentPad*
%ADD15C,1.600000*%
G04 #@! TD*
G04 #@! TA.AperFunction,ComponentPad*
%ADD16O,2.400000X1.600000*%
G04 #@! TD*
G04 #@! TA.AperFunction,ComponentPad*
%ADD17R,2.400000X1.600000*%
G04 #@! TD*
G04 #@! TA.AperFunction,ComponentPad*
%ADD18C,2.000000*%
G04 #@! TD*
G04 #@! TA.AperFunction,ConnectorPad*
%ADD19O,1.778000X5.080000*%
G04 #@! TD*
G04 #@! TA.AperFunction,ComponentPad*
%ADD20C,0.800000*%
G04 #@! TD*
G04 #@! TA.AperFunction,ComponentPad*
%ADD21C,7.000000*%
G04 #@! TD*
G04 #@! TA.AperFunction,ComponentPad*
%ADD22C,1.800000*%
G04 #@! TD*
G04 #@! TA.AperFunction,ComponentPad*
%ADD23R,1.800000X1.800000*%
G04 #@! TD*
G04 #@! TA.AperFunction,ViaPad*
%ADD24C,1.000000*%
G04 #@! TD*
G04 #@! TA.AperFunction,Conductor*
%ADD25C,0.300000*%
G04 #@! TD*
G04 #@! TA.AperFunction,Conductor*
%ADD26C,0.400000*%
G04 #@! TD*
G04 APERTURE END LIST*
D10*
X102000000Y-60380000D03*
X129940000Y-68000000D03*
X104540000Y-60380000D03*
X127400000Y-68000000D03*
X107080000Y-60380000D03*
X124860000Y-68000000D03*
X109620000Y-60380000D03*
X122320000Y-68000000D03*
X112160000Y-60380000D03*
X119780000Y-68000000D03*
X114700000Y-60380000D03*
X117240000Y-68000000D03*
X117240000Y-60380000D03*
X114700000Y-68000000D03*
X119780000Y-60380000D03*
X112160000Y-68000000D03*
X122320000Y-60380000D03*
X109620000Y-68000000D03*
X124860000Y-60380000D03*
X107080000Y-68000000D03*
X127400000Y-60380000D03*
X104540000Y-68000000D03*
X129940000Y-60380000D03*
D11*
X102000000Y-68000000D03*
D12*
X87620000Y-93500000D03*
X80000000Y-96040000D03*
X87620000Y-96040000D03*
D13*
X80000000Y-93500000D03*
D14*
X88700000Y-87040000D03*
X88700000Y-62040000D03*
D15*
X86160000Y-78695000D03*
X86160000Y-75925000D03*
X86160000Y-73155000D03*
X86160000Y-70385000D03*
X89000000Y-80080000D03*
X89000000Y-77310000D03*
X89000000Y-74540000D03*
X89000000Y-71770000D03*
D13*
X89000000Y-69000000D03*
D16*
X115740000Y-104000000D03*
X100500000Y-137020000D03*
X115740000Y-106540000D03*
X100500000Y-134480000D03*
X115740000Y-109080000D03*
X100500000Y-131940000D03*
X115740000Y-111620000D03*
X100500000Y-129400000D03*
X115740000Y-114160000D03*
X100500000Y-126860000D03*
X115740000Y-116700000D03*
X100500000Y-124320000D03*
X115740000Y-119240000D03*
X100500000Y-121780000D03*
X115740000Y-121780000D03*
X100500000Y-119240000D03*
X115740000Y-124320000D03*
X100500000Y-116700000D03*
X115740000Y-126860000D03*
X100500000Y-114160000D03*
X115740000Y-129400000D03*
X100500000Y-111620000D03*
X115740000Y-131940000D03*
X100500000Y-109080000D03*
X115740000Y-134480000D03*
X100500000Y-106540000D03*
X115740000Y-137020000D03*
D17*
X100500000Y-104000000D03*
D18*
X132500000Y-75000000D03*
X132500000Y-79500000D03*
X126000000Y-75000000D03*
X126000000Y-79500000D03*
X108500000Y-75000000D03*
X108500000Y-79500000D03*
X102000000Y-75000000D03*
X102000000Y-79500000D03*
D19*
X104830000Y-147850000D03*
X107370000Y-147850000D03*
X114990000Y-147850000D03*
X122610000Y-147850000D03*
X120070000Y-147850000D03*
X117530000Y-147850000D03*
X125150000Y-147850000D03*
X99750000Y-147850000D03*
X102290000Y-147850000D03*
X112450000Y-147850000D03*
X127690000Y-147850000D03*
X132770000Y-147850000D03*
X130230000Y-147850000D03*
X135310000Y-147850000D03*
X140390000Y-147850000D03*
X137850000Y-147850000D03*
X142930000Y-147850000D03*
X153090000Y-147850000D03*
X148010000Y-147850000D03*
X160710000Y-147850000D03*
X165790000Y-147850000D03*
X168330000Y-147850000D03*
X145470000Y-147850000D03*
X155630000Y-147850000D03*
X158170000Y-147850000D03*
X163250000Y-147850000D03*
X150550000Y-147850000D03*
D16*
X95620000Y-119000000D03*
X88000000Y-134240000D03*
X95620000Y-121540000D03*
X88000000Y-131700000D03*
X95620000Y-124080000D03*
X88000000Y-129160000D03*
X95620000Y-126620000D03*
X88000000Y-126620000D03*
X95620000Y-129160000D03*
X88000000Y-124080000D03*
X95620000Y-131700000D03*
X88000000Y-121540000D03*
X95620000Y-134240000D03*
D17*
X88000000Y-119000000D03*
D10*
X151000000Y-80380000D03*
X166240000Y-88000000D03*
X153540000Y-80380000D03*
X163700000Y-88000000D03*
X156080000Y-80380000D03*
X161160000Y-88000000D03*
X158620000Y-80380000D03*
X158620000Y-88000000D03*
X161160000Y-80380000D03*
X156080000Y-88000000D03*
X163700000Y-80380000D03*
X153540000Y-88000000D03*
X166240000Y-80380000D03*
D11*
X151000000Y-88000000D03*
D10*
X151000000Y-105880000D03*
X166240000Y-113500000D03*
X153540000Y-105880000D03*
X163700000Y-113500000D03*
X156080000Y-105880000D03*
X161160000Y-113500000D03*
X158620000Y-105880000D03*
X158620000Y-113500000D03*
X161160000Y-105880000D03*
X156080000Y-113500000D03*
X163700000Y-105880000D03*
X153540000Y-113500000D03*
X166240000Y-105880000D03*
D11*
X151000000Y-113500000D03*
D16*
X144620000Y-60000000D03*
X137000000Y-75240000D03*
X144620000Y-62540000D03*
X137000000Y-72700000D03*
X144620000Y-65080000D03*
X137000000Y-70160000D03*
X144620000Y-67620000D03*
X137000000Y-67620000D03*
X144620000Y-70160000D03*
X137000000Y-65080000D03*
X144620000Y-72700000D03*
X137000000Y-62540000D03*
X144620000Y-75240000D03*
D17*
X137000000Y-60000000D03*
D16*
X135740000Y-104000000D03*
X120500000Y-137020000D03*
X135740000Y-106540000D03*
X120500000Y-134480000D03*
X135740000Y-109080000D03*
X120500000Y-131940000D03*
X135740000Y-111620000D03*
X120500000Y-129400000D03*
X135740000Y-114160000D03*
X120500000Y-126860000D03*
X135740000Y-116700000D03*
X120500000Y-124320000D03*
X135740000Y-119240000D03*
X120500000Y-121780000D03*
X135740000Y-121780000D03*
X120500000Y-119240000D03*
X135740000Y-124320000D03*
X120500000Y-116700000D03*
X135740000Y-126860000D03*
X120500000Y-114160000D03*
X135740000Y-129400000D03*
X120500000Y-111620000D03*
X135740000Y-131940000D03*
X120500000Y-109080000D03*
X135740000Y-134480000D03*
X120500000Y-106540000D03*
X135740000Y-137020000D03*
D17*
X120500000Y-104000000D03*
D20*
X167856155Y-131643845D03*
X166000000Y-130875000D03*
X164143845Y-131643845D03*
X163375000Y-133500000D03*
X164143845Y-135356155D03*
X166000000Y-136125000D03*
X167856155Y-135356155D03*
X168625000Y-133500000D03*
D21*
X166000000Y-133500000D03*
D20*
X98356155Y-58143845D03*
X96500000Y-57375000D03*
X94643845Y-58143845D03*
X93875000Y-60000000D03*
X94643845Y-61856155D03*
X96500000Y-62625000D03*
X98356155Y-61856155D03*
X99125000Y-60000000D03*
D21*
X96500000Y-60000000D03*
D20*
X83856155Y-131643845D03*
X82000000Y-130875000D03*
X80143845Y-131643845D03*
X79375000Y-133500000D03*
X80143845Y-135356155D03*
X82000000Y-136125000D03*
X83856155Y-135356155D03*
X84625000Y-133500000D03*
D21*
X82000000Y-133500000D03*
D20*
X167856155Y-58143845D03*
X166000000Y-57375000D03*
X164143845Y-58143845D03*
X163375000Y-60000000D03*
X164143845Y-61856155D03*
X166000000Y-62625000D03*
X167856155Y-61856155D03*
X168625000Y-60000000D03*
D21*
X166000000Y-60000000D03*
D16*
X144620000Y-83000000D03*
X137000000Y-98240000D03*
X144620000Y-85540000D03*
X137000000Y-95700000D03*
X144620000Y-88080000D03*
X137000000Y-93160000D03*
X144620000Y-90620000D03*
X137000000Y-90620000D03*
X144620000Y-93160000D03*
X137000000Y-88080000D03*
X144620000Y-95700000D03*
X137000000Y-85540000D03*
X144620000Y-98240000D03*
D17*
X137000000Y-83000000D03*
D10*
X151000000Y-67880000D03*
X166240000Y-75500000D03*
X153540000Y-67880000D03*
X163700000Y-75500000D03*
X156080000Y-67880000D03*
X161160000Y-75500000D03*
X158620000Y-67880000D03*
X158620000Y-75500000D03*
X161160000Y-67880000D03*
X156080000Y-75500000D03*
X163700000Y-67880000D03*
X153540000Y-75500000D03*
X166240000Y-67880000D03*
D11*
X151000000Y-75500000D03*
D10*
X80500000Y-104380000D03*
X95740000Y-112000000D03*
X83040000Y-104380000D03*
X93200000Y-112000000D03*
X85580000Y-104380000D03*
X90660000Y-112000000D03*
X88120000Y-104380000D03*
X88120000Y-112000000D03*
X90660000Y-104380000D03*
X85580000Y-112000000D03*
X93200000Y-104380000D03*
X83040000Y-112000000D03*
X95740000Y-104380000D03*
D11*
X80500000Y-112000000D03*
D10*
X102000000Y-87380000D03*
X124860000Y-95000000D03*
X104540000Y-87380000D03*
X122320000Y-95000000D03*
X107080000Y-87380000D03*
X119780000Y-95000000D03*
X109620000Y-87380000D03*
X117240000Y-95000000D03*
X112160000Y-87380000D03*
X114700000Y-95000000D03*
X114700000Y-87380000D03*
X112160000Y-95000000D03*
X117240000Y-87380000D03*
X109620000Y-95000000D03*
X119780000Y-87380000D03*
X107080000Y-95000000D03*
X122320000Y-87380000D03*
X104540000Y-95000000D03*
X124860000Y-87380000D03*
D11*
X102000000Y-95000000D03*
D10*
X151000000Y-93380000D03*
X166240000Y-101000000D03*
X153540000Y-93380000D03*
X163700000Y-101000000D03*
X156080000Y-93380000D03*
X161160000Y-101000000D03*
X158620000Y-93380000D03*
X158620000Y-101000000D03*
X161160000Y-93380000D03*
X156080000Y-101000000D03*
X163700000Y-93380000D03*
X153540000Y-101000000D03*
X166240000Y-93380000D03*
D11*
X151000000Y-101000000D03*
D16*
X147620000Y-123000000D03*
X140000000Y-138240000D03*
X147620000Y-125540000D03*
X140000000Y-135700000D03*
X147620000Y-128080000D03*
X140000000Y-133160000D03*
X147620000Y-130620000D03*
X140000000Y-130620000D03*
X147620000Y-133160000D03*
X140000000Y-128080000D03*
X147620000Y-135700000D03*
X140000000Y-125540000D03*
X147620000Y-138240000D03*
D17*
X140000000Y-123000000D03*
D16*
X160120000Y-120500000D03*
X152500000Y-138280000D03*
X160120000Y-123040000D03*
X152500000Y-135740000D03*
X160120000Y-125580000D03*
X152500000Y-133200000D03*
X160120000Y-128120000D03*
X152500000Y-130660000D03*
X160120000Y-130660000D03*
X152500000Y-128120000D03*
X160120000Y-133200000D03*
X152500000Y-125580000D03*
X160120000Y-135740000D03*
X152500000Y-123040000D03*
X160120000Y-138280000D03*
D17*
X152500000Y-120500000D03*
D22*
X115460000Y-75000000D03*
D23*
X118000000Y-75000000D03*
D24*
X124599700Y-83045000D03*
X131752500Y-81269800D03*
X132696000Y-94958800D03*
X138749600Y-111414500D03*
X143164000Y-111414500D03*
X146820000Y-145009100D03*
X150279600Y-116786100D03*
X126976000Y-121551800D03*
X126976000Y-111442900D03*
X131294900Y-127141000D03*
X131541600Y-129101600D03*
X145619700Y-139669600D03*
X102052400Y-143329600D03*
X109212100Y-105930000D03*
X111602000Y-134353000D03*
X138518200Y-103101600D03*
X128191800Y-126077000D03*
X124743800Y-114160000D03*
X85446100Y-109640500D03*
X115699200Y-141395500D03*
X132014700Y-134672400D03*
X129014400Y-125131200D03*
X125644100Y-116630300D03*
X122863200Y-120374300D03*
X93630300Y-120478300D03*
X165790000Y-143066100D03*
X99306700Y-144329500D03*
X109419800Y-102320700D03*
X112574300Y-100850600D03*
X133753300Y-99675700D03*
X149395500Y-145009100D03*
X155622300Y-140514800D03*
X157140800Y-132825400D03*
X144122800Y-142485900D03*
X91999600Y-113429700D03*
X110989500Y-101394900D03*
X130561800Y-129904700D03*
X93648900Y-125598500D03*
X110866700Y-133319800D03*
X136858300Y-144859300D03*
X144758000Y-115022800D03*
X122494400Y-118813900D03*
X144239300Y-77887600D03*
X129938200Y-63439600D03*
X132615800Y-130256500D03*
X89193000Y-65425400D03*
X102314100Y-138352100D03*
X133544500Y-135760100D03*
X142030300Y-126589600D03*
X145930800Y-119756000D03*
X148052100Y-101042300D03*
X140390000Y-144309000D03*
X127855900Y-123620400D03*
X130494500Y-64730900D03*
X131440300Y-89401300D03*
X130097600Y-110296900D03*
X129124000Y-94130800D03*
X148014800Y-88176700D03*
X146603800Y-78570600D03*
X145458600Y-112314800D03*
X140561500Y-81458200D03*
X87856000Y-100838300D03*
X113774300Y-100282000D03*
X149199600Y-94044900D03*
X148693800Y-85075600D03*
X144901500Y-116273200D03*
X148157600Y-79495600D03*
X133185800Y-57950500D03*
X131350700Y-85166900D03*
X130660700Y-97943900D03*
X96051900Y-99475200D03*
X130324000Y-85908500D03*
X98055400Y-70310200D03*
X90226500Y-101614600D03*
X111926100Y-99730400D03*
X127105200Y-102252600D03*
X125796100Y-90045000D03*
X142114400Y-102586900D03*
X156534500Y-125090600D03*
X126955900Y-141553400D03*
X124860000Y-106973500D03*
D25*
X144620000Y-62540000D02*
X138270000Y-68890000D01*
X138270000Y-68890000D02*
X136154000Y-68890000D01*
X136154000Y-68890000D02*
X135003000Y-70041000D01*
X135003000Y-70041000D02*
X135003000Y-72497000D01*
X135003000Y-72497000D02*
X132500000Y-75000000D01*
X126000000Y-75000000D02*
X124599700Y-76400300D01*
X124599700Y-76400300D02*
X124599700Y-83045000D01*
X144620000Y-65080000D02*
X140427300Y-69272700D01*
X140427300Y-69272700D02*
X140427300Y-73938700D01*
X140427300Y-73938700D02*
X133096300Y-81269700D01*
X133096300Y-81269700D02*
X131752500Y-81269700D01*
X131752500Y-81269700D02*
X131752500Y-81269800D01*
X143164000Y-111414500D02*
X143307400Y-111557900D01*
X143307400Y-111557900D02*
X143307400Y-120240200D01*
X143307400Y-120240200D02*
X144719400Y-121652200D01*
X144719400Y-121652200D02*
X144719400Y-140042400D01*
X144719400Y-140042400D02*
X146820000Y-142143000D01*
X146820000Y-142143000D02*
X146820000Y-145009100D01*
X138749600Y-111414500D02*
X137343700Y-112820400D01*
X137343700Y-112820400D02*
X134804800Y-112820400D01*
X134804800Y-112820400D02*
X132254800Y-110270400D01*
X132254800Y-110270400D02*
X132254800Y-95400000D01*
X132254800Y-95400000D02*
X132696000Y-94958800D01*
X102000000Y-79500000D02*
X94413900Y-87086100D01*
X94413900Y-87086100D02*
X94413900Y-117112900D01*
X94413900Y-117112900D02*
X93966400Y-117560400D01*
X93966400Y-117560400D02*
X93966400Y-119541200D01*
X93966400Y-119541200D02*
X95620000Y-121194800D01*
X95620000Y-121194800D02*
X95620000Y-121540000D01*
X135740000Y-111620000D02*
X132805200Y-108685200D01*
X132805200Y-108685200D02*
X132805200Y-96576400D01*
X132805200Y-96576400D02*
X134797100Y-94584500D01*
X134797100Y-94584500D02*
X134797100Y-82626900D01*
X134797100Y-82626900D02*
X143454000Y-73970000D01*
X143454000Y-73970000D02*
X145526100Y-73970000D01*
X145526100Y-73970000D02*
X146267400Y-73228700D01*
X146267400Y-73228700D02*
X146267400Y-71807400D01*
X146267400Y-71807400D02*
X144620000Y-70160000D01*
X163250000Y-147850000D02*
X163250000Y-146091000D01*
X163250000Y-146091000D02*
X154169000Y-137010000D01*
X154169000Y-137010000D02*
X151647000Y-137010000D01*
X151647000Y-137010000D02*
X150279600Y-135642600D01*
X150279600Y-135642600D02*
X150279600Y-116786100D01*
X126976000Y-121551800D02*
X126976000Y-111442900D01*
X104540000Y-95000000D02*
X110890000Y-88650000D01*
X110890000Y-88650000D02*
X110890000Y-84544700D01*
X110890000Y-84544700D02*
X122320000Y-73114700D01*
X122320000Y-73114700D02*
X122320000Y-68000000D01*
X104540000Y-95000000D02*
X104540000Y-96413200D01*
X104540000Y-96413200D02*
X98898300Y-102054900D01*
X98898300Y-102054900D02*
X98898300Y-110018300D01*
X98898300Y-110018300D02*
X100500000Y-111620000D01*
X124313800Y-123472200D02*
X127982600Y-127141000D01*
X127982600Y-127141000D02*
X131294900Y-127141000D01*
X122320000Y-60380000D02*
X122320000Y-61988500D01*
X122320000Y-61988500D02*
X126074900Y-65743400D01*
X126074900Y-65743400D02*
X126074900Y-72092700D01*
X126074900Y-72092700D02*
X123652000Y-74515600D01*
X123652000Y-74515600D02*
X123652000Y-101548300D01*
X123652000Y-101548300D02*
X123837600Y-101733900D01*
X123837600Y-101733900D02*
X123837600Y-116875200D01*
X123837600Y-116875200D02*
X124313800Y-117351400D01*
X124313800Y-117351400D02*
X124313800Y-123472200D01*
X115740000Y-126860000D02*
X117079600Y-125520400D01*
X117079600Y-125520400D02*
X122265600Y-125520400D01*
X122265600Y-125520400D02*
X124313800Y-123472200D01*
X104830000Y-147850000D02*
X104830000Y-143896300D01*
X104830000Y-143896300D02*
X106773800Y-141952500D01*
X106773800Y-141952500D02*
X106773800Y-135356400D01*
X106773800Y-135356400D02*
X115270200Y-126860000D01*
X115270200Y-126860000D02*
X115740000Y-126860000D01*
X107370000Y-147850000D02*
X107370000Y-135543000D01*
X107370000Y-135543000D02*
X114746300Y-128166700D01*
X114746300Y-128166700D02*
X130606700Y-128166700D01*
X130606700Y-128166700D02*
X131541600Y-129101600D01*
X147620000Y-130620000D02*
X145619700Y-132620300D01*
X145619700Y-132620300D02*
X145619700Y-139669600D01*
X117240000Y-87380000D02*
X116033300Y-88586700D01*
X116033300Y-88586700D02*
X116033300Y-97028500D01*
X116033300Y-97028500D02*
X118475100Y-99470300D01*
X118475100Y-99470300D02*
X118475100Y-104600900D01*
X118475100Y-104600900D02*
X120414200Y-106540000D01*
X120414200Y-106540000D02*
X120500000Y-106540000D01*
X102052400Y-143329600D02*
X103908200Y-141473800D01*
X103908200Y-141473800D02*
X103908200Y-127162400D01*
X103908200Y-127162400D02*
X109212100Y-121858500D01*
X109212100Y-121858500D02*
X109212100Y-105930000D01*
X160120000Y-138280000D02*
X161720400Y-136679600D01*
X161720400Y-136679600D02*
X161720400Y-132205400D01*
X161720400Y-132205400D02*
X169140200Y-124785600D01*
X169140200Y-124785600D02*
X169140200Y-74307000D01*
X169140200Y-74307000D02*
X164900400Y-70067200D01*
X164900400Y-70067200D02*
X164900400Y-66929500D01*
X164900400Y-66929500D02*
X154470800Y-56499900D01*
X154470800Y-56499900D02*
X113873200Y-56499900D01*
X113873200Y-56499900D02*
X110890000Y-59483100D01*
X110890000Y-59483100D02*
X110890000Y-61232200D01*
X110890000Y-61232200D02*
X110096900Y-62025300D01*
X110096900Y-62025300D02*
X108350000Y-62025300D01*
X152500000Y-120500000D02*
X155634200Y-123634200D01*
X155634200Y-123634200D02*
X155634200Y-133794200D01*
X155634200Y-133794200D02*
X160120000Y-138280000D01*
X114990000Y-147850000D02*
X114990000Y-144690700D01*
X114990000Y-144690700D02*
X111602000Y-141302700D01*
X111602000Y-141302700D02*
X111602000Y-134353000D01*
X108350000Y-62025300D02*
X108350000Y-70679100D01*
X108350000Y-70679100D02*
X107093000Y-71936100D01*
X107093000Y-71936100D02*
X107093000Y-84076100D01*
X107093000Y-84076100D02*
X108294800Y-85277900D01*
X108294800Y-85277900D02*
X108294800Y-88282600D01*
X108294800Y-88282600D02*
X103200400Y-93377000D01*
X103200400Y-93377000D02*
X103200400Y-96974400D01*
X103200400Y-96974400D02*
X98347900Y-101826900D01*
X98347900Y-101826900D02*
X98347900Y-129787900D01*
X98347900Y-129787900D02*
X100500000Y-131940000D01*
X107080000Y-60380000D02*
X107080000Y-60755300D01*
X107080000Y-60755300D02*
X108350000Y-62025300D01*
X138518200Y-103101600D02*
X144073900Y-108657300D01*
X144073900Y-108657300D02*
X144073900Y-114433700D01*
X144073900Y-114433700D02*
X143857700Y-114649900D01*
X143857700Y-114649900D02*
X143857700Y-118970300D01*
X143857700Y-118970300D02*
X145694700Y-120807300D01*
X145694700Y-120807300D02*
X145694700Y-128284800D01*
X145694700Y-128284800D02*
X146759900Y-129350000D01*
X146759900Y-129350000D02*
X148451500Y-129350000D01*
X148451500Y-129350000D02*
X149359300Y-130257800D01*
X149359300Y-130257800D02*
X149359300Y-137316000D01*
X149359300Y-137316000D02*
X151657800Y-139614500D01*
X151657800Y-139614500D02*
X155995300Y-139614500D01*
X155995300Y-139614500D02*
X158170000Y-141789200D01*
X158170000Y-141789200D02*
X158170000Y-147850000D01*
X117240000Y-95000000D02*
X120055300Y-97815300D01*
X120055300Y-97815300D02*
X120055300Y-100325700D01*
X120055300Y-100325700D02*
X122108000Y-102378400D01*
X122108000Y-102378400D02*
X122108000Y-112552000D01*
X122108000Y-112552000D02*
X120500000Y-114160000D01*
X124743800Y-114160000D02*
X124743800Y-117003200D01*
X124743800Y-117003200D02*
X124891900Y-117151300D01*
X124891900Y-117151300D02*
X124891900Y-122781700D01*
X124891900Y-122781700D02*
X128187200Y-126077000D01*
X128187200Y-126077000D02*
X128191800Y-126077000D01*
X85446100Y-109640500D02*
X84310000Y-108504400D01*
X84310000Y-108504400D02*
X84310000Y-100350000D01*
X84310000Y-100350000D02*
X80000000Y-96040000D01*
X120500000Y-134480000D02*
X131822300Y-134480000D01*
X131822300Y-134480000D02*
X132014700Y-134672400D01*
X117530000Y-147850000D02*
X117530000Y-143226300D01*
X117530000Y-143226300D02*
X115699200Y-141395500D01*
X152500000Y-123040000D02*
X154699200Y-125239200D01*
X154699200Y-125239200D02*
X154699200Y-133540800D01*
X154699200Y-133540800D02*
X152500000Y-135740000D01*
X100500000Y-134480000D02*
X98990000Y-132970000D01*
X98990000Y-132970000D02*
X94789900Y-132970000D01*
X94789900Y-132970000D02*
X89709900Y-127890000D01*
X89709900Y-127890000D02*
X87145600Y-127890000D01*
X87145600Y-127890000D02*
X78799600Y-119544000D01*
X78799600Y-119544000D02*
X78799600Y-75997500D01*
X78799600Y-75997500D02*
X88471400Y-66325700D01*
X88471400Y-66325700D02*
X95756600Y-66325700D01*
X95756600Y-66325700D02*
X100405400Y-61676900D01*
X100405400Y-61676900D02*
X100405400Y-59866000D01*
X100405400Y-59866000D02*
X101504900Y-58766500D01*
X101504900Y-58766500D02*
X108006500Y-58766500D01*
X108006500Y-58766500D02*
X109620000Y-60380000D01*
X100500000Y-116700000D02*
X98898300Y-118301700D01*
X98898300Y-118301700D02*
X98898300Y-127356400D01*
X98898300Y-127356400D02*
X99671900Y-128130000D01*
X99671900Y-128130000D02*
X101371100Y-128130000D01*
X101371100Y-128130000D02*
X102100400Y-127400700D01*
X102100400Y-127400700D02*
X102100400Y-126635400D01*
X102100400Y-126635400D02*
X107211100Y-121524700D01*
X107211100Y-121524700D02*
X107211100Y-102272400D01*
X107211100Y-102272400D02*
X112902800Y-96580700D01*
X112902800Y-96580700D02*
X117924700Y-101602600D01*
X117924700Y-101602600D02*
X117924700Y-114124700D01*
X117924700Y-114124700D02*
X120500000Y-116700000D01*
X112160000Y-95000000D02*
X112160000Y-95837900D01*
X112160000Y-95837900D02*
X112902800Y-96580700D01*
X125644100Y-116630300D02*
X125644100Y-122755700D01*
X125644100Y-122755700D02*
X128019600Y-125131200D01*
X128019600Y-125131200D02*
X129014400Y-125131200D01*
X165790000Y-147850000D02*
X165790000Y-143066100D01*
X122863200Y-120374300D02*
X122863200Y-121567700D01*
X122863200Y-121567700D02*
X121380900Y-123050000D01*
X121380900Y-123050000D02*
X117010000Y-123050000D01*
X117010000Y-123050000D02*
X115740000Y-121780000D01*
X93630300Y-120478300D02*
X93416000Y-120264000D01*
X93416000Y-120264000D02*
X93416000Y-117797100D01*
X93416000Y-117797100D02*
X90660000Y-115041100D01*
X90660000Y-115041100D02*
X90660000Y-112000000D01*
X99306700Y-144329500D02*
X103357900Y-140278300D01*
X103357900Y-140278300D02*
X103357900Y-126934300D01*
X103357900Y-126934300D02*
X108311700Y-121980500D01*
X108311700Y-121980500D02*
X108311700Y-103428800D01*
X108311700Y-103428800D02*
X109419800Y-102320700D01*
X152500000Y-128120000D02*
X150899600Y-126519600D01*
X150899600Y-126519600D02*
X150899600Y-117637900D01*
X150899600Y-117637900D02*
X152216900Y-116320600D01*
X152216900Y-116320600D02*
X152216900Y-102323100D01*
X152216900Y-102323100D02*
X153540000Y-101000000D01*
X119780000Y-60380000D02*
X121450600Y-58709400D01*
X121450600Y-58709400D02*
X122812500Y-58709400D01*
X122812500Y-58709400D02*
X123590000Y-59486900D01*
X123590000Y-59486900D02*
X123590000Y-61255400D01*
X123590000Y-61255400D02*
X124870100Y-62535500D01*
X124870100Y-62535500D02*
X130350600Y-62535500D01*
X130350600Y-62535500D02*
X132251500Y-64436400D01*
X132251500Y-64436400D02*
X132251500Y-70295300D01*
X132251500Y-70295300D02*
X129201200Y-73345600D01*
X129201200Y-73345600D02*
X129201200Y-80675600D01*
X129201200Y-80675600D02*
X128223600Y-81653200D01*
X128223600Y-81653200D02*
X128223600Y-99756600D01*
X128223600Y-99756600D02*
X129106200Y-100639200D01*
X129106200Y-100639200D02*
X129106200Y-122186600D01*
X129106200Y-122186600D02*
X133459800Y-126540200D01*
X133459800Y-126540200D02*
X133459800Y-127941700D01*
X133459800Y-127941700D02*
X134836700Y-129318600D01*
X115947900Y-129607900D02*
X117067900Y-130727900D01*
X117067900Y-130727900D02*
X130111800Y-130727900D01*
X130111800Y-130727900D02*
X130560200Y-131176300D01*
X130560200Y-131176300D02*
X132979000Y-131176300D01*
X132979000Y-131176300D02*
X134836700Y-129318600D01*
X134836700Y-129318600D02*
X134918100Y-129400000D01*
X134918100Y-129400000D02*
X135740000Y-129400000D01*
X120070000Y-147850000D02*
X120070000Y-144493000D01*
X120070000Y-144493000D02*
X113534800Y-137957800D01*
X113534800Y-137957800D02*
X113534800Y-132021000D01*
X113534800Y-132021000D02*
X115947900Y-129607900D01*
X115740000Y-129400000D02*
X115947900Y-129607900D01*
X114700000Y-95000000D02*
X113065600Y-93365600D01*
X113065600Y-93365600D02*
X111623500Y-93365600D01*
X111623500Y-93365600D02*
X110890000Y-94099100D01*
X110890000Y-94099100D02*
X110890000Y-96600400D01*
X110890000Y-96600400D02*
X106660700Y-100829700D01*
X106660700Y-100829700D02*
X106660700Y-120699300D01*
X106660700Y-120699300D02*
X100500000Y-126860000D01*
X117240000Y-60380000D02*
X117240000Y-59990400D01*
X117240000Y-59990400D02*
X120180200Y-57050200D01*
X120180200Y-57050200D02*
X136677200Y-57050200D01*
X136677200Y-57050200D02*
X138617200Y-58990200D01*
X138617200Y-58990200D02*
X138617200Y-61003000D01*
X138617200Y-61003000D02*
X138280600Y-61339600D01*
X138280600Y-61339600D02*
X136049500Y-61339600D01*
X136049500Y-61339600D02*
X133352100Y-64037000D01*
X133352100Y-64037000D02*
X133352100Y-70751100D01*
X133352100Y-70751100D02*
X130301800Y-73801400D01*
X130301800Y-73801400D02*
X130301800Y-81131400D01*
X130301800Y-81131400D02*
X129423700Y-82009500D01*
X129423700Y-82009500D02*
X129423700Y-93157200D01*
X129423700Y-93157200D02*
X130027200Y-93760700D01*
X130027200Y-93760700D02*
X130027200Y-96699800D01*
X130027200Y-96699800D02*
X129724800Y-97002200D01*
X129724800Y-97002200D02*
X129724800Y-98281100D01*
X129724800Y-98281100D02*
X130997900Y-99554200D01*
X130997900Y-99554200D02*
X130997900Y-113181900D01*
X130997900Y-113181900D02*
X134010100Y-116194100D01*
X134010100Y-116194100D02*
X134010100Y-127318600D01*
X134010100Y-127318600D02*
X134891100Y-128199600D01*
X134891100Y-128199600D02*
X136717300Y-128199600D01*
X136717300Y-128199600D02*
X137365400Y-128847700D01*
X137365400Y-128847700D02*
X137365400Y-130314600D01*
X137365400Y-130314600D02*
X135740000Y-131940000D01*
X115947900Y-132147900D02*
X116948900Y-133148900D01*
X116948900Y-133148900D02*
X134531100Y-133148900D01*
X134531100Y-133148900D02*
X135740000Y-131940000D01*
X115947900Y-132147900D02*
X114089800Y-134006000D01*
X114089800Y-134006000D02*
X114089800Y-137558400D01*
X114089800Y-137558400D02*
X122610000Y-146078600D01*
X122610000Y-146078600D02*
X122610000Y-147850000D01*
X115947900Y-132147900D02*
X115740000Y-131940000D01*
X120500000Y-124320000D02*
X120936300Y-124320000D01*
X120936300Y-124320000D02*
X123763500Y-121492800D01*
X123763500Y-121492800D02*
X123763500Y-118560600D01*
X123763500Y-118560600D02*
X123208700Y-118005800D01*
X123208700Y-118005800D02*
X123208700Y-101883200D01*
X123208700Y-101883200D02*
X122320000Y-100994500D01*
X122320000Y-100994500D02*
X122320000Y-95000000D01*
X133753300Y-99675700D02*
X133753300Y-96406700D01*
X133753300Y-96406700D02*
X137000000Y-93160000D01*
X102290000Y-147850000D02*
X102290000Y-145147200D01*
X102290000Y-145147200D02*
X106223400Y-141213800D01*
X106223400Y-141213800D02*
X106223400Y-132958700D01*
X106223400Y-132958700D02*
X112574300Y-126607800D01*
X112574300Y-126607800D02*
X112574300Y-100850600D01*
X135740000Y-109080000D02*
X133581200Y-106921200D01*
X133581200Y-106921200D02*
X133581200Y-99847800D01*
X133581200Y-99847800D02*
X133753300Y-99675700D01*
X160120000Y-125580000D02*
X158518300Y-127181700D01*
X158518300Y-127181700D02*
X158518300Y-131166600D01*
X158518300Y-131166600D02*
X159281700Y-131930000D01*
X159281700Y-131930000D02*
X160951300Y-131930000D01*
X160951300Y-131930000D02*
X168589900Y-124291400D01*
X168589900Y-124291400D02*
X168589900Y-86045000D01*
X168589900Y-86045000D02*
X164970000Y-82425100D01*
X164970000Y-82425100D02*
X164970000Y-74658900D01*
X164970000Y-74658900D02*
X164210600Y-73899500D01*
X164210600Y-73899500D02*
X162760500Y-73899500D01*
X162760500Y-73899500D02*
X161160000Y-75500000D01*
X137000000Y-85540000D02*
X135399600Y-87140400D01*
X135399600Y-87140400D02*
X135399600Y-91559600D01*
X135399600Y-91559600D02*
X137000000Y-93160000D01*
X149395500Y-145009100D02*
X153889800Y-140514800D01*
X153889800Y-140514800D02*
X155622300Y-140514800D01*
X157140800Y-132825400D02*
X157140800Y-125757600D01*
X157140800Y-125757600D02*
X157434800Y-125463600D01*
X157434800Y-125463600D02*
X157434800Y-120935000D01*
X157434800Y-120935000D02*
X159834800Y-118535000D01*
X159834800Y-118535000D02*
X159834800Y-109634800D01*
X159834800Y-109634800D02*
X156080000Y-105880000D01*
X107080000Y-95000000D02*
X113430000Y-88650000D01*
X113430000Y-88650000D02*
X113430000Y-83950200D01*
X113430000Y-83950200D02*
X124860000Y-72520200D01*
X124860000Y-72520200D02*
X124860000Y-68000000D01*
X107080000Y-95000000D02*
X102774100Y-99305900D01*
X102774100Y-99305900D02*
X102774100Y-106805900D01*
X102774100Y-106805900D02*
X100500000Y-109080000D01*
X144122800Y-142485900D02*
X143480900Y-141844000D01*
X143480900Y-141844000D02*
X143480900Y-124262300D01*
X143480900Y-124262300D02*
X141600400Y-122381800D01*
X141600400Y-122381800D02*
X141600400Y-119582100D01*
X141600400Y-119582100D02*
X136178300Y-114160000D01*
X136178300Y-114160000D02*
X135740000Y-114160000D01*
X91999600Y-113429700D02*
X91999600Y-105719600D01*
X91999600Y-105719600D02*
X90660000Y-104380000D01*
X110989500Y-101394900D02*
X110989500Y-121778300D01*
X110989500Y-121778300D02*
X104458500Y-128309300D01*
X104458500Y-128309300D02*
X104458500Y-142200300D01*
X104458500Y-142200300D02*
X99750000Y-146908800D01*
X99750000Y-146908800D02*
X99750000Y-147850000D01*
X161160000Y-101000000D02*
X156080000Y-95920000D01*
X156080000Y-95920000D02*
X156080000Y-93380000D01*
X130561800Y-129904700D02*
X121004700Y-129904700D01*
X121004700Y-129904700D02*
X120500000Y-129400000D01*
X160120000Y-135740000D02*
X158041100Y-133661100D01*
X158041100Y-133661100D02*
X158041100Y-132452400D01*
X158041100Y-132452400D02*
X157963300Y-132374600D01*
X157963300Y-132374600D02*
X157963300Y-125713300D01*
X157963300Y-125713300D02*
X157985100Y-125691500D01*
X157985100Y-125691500D02*
X157985100Y-125174900D01*
X157985100Y-125174900D02*
X160120000Y-123040000D01*
X95620000Y-124080000D02*
X97247100Y-122452900D01*
X97247100Y-122452900D02*
X97247100Y-89985300D01*
X97247100Y-89985300D02*
X103416000Y-83816400D01*
X103416000Y-83816400D02*
X103416000Y-71979900D01*
X103416000Y-71979900D02*
X103308200Y-71872100D01*
X103308200Y-71872100D02*
X103308200Y-61611800D01*
X103308200Y-61611800D02*
X104540000Y-60380000D01*
X112450000Y-147850000D02*
X110650100Y-146050100D01*
X110650100Y-146050100D02*
X110650100Y-133536400D01*
X110650100Y-133536400D02*
X110866700Y-133319800D01*
X93648900Y-125598500D02*
X89590400Y-121540000D01*
X89590400Y-121540000D02*
X88000000Y-121540000D01*
X140000000Y-135700000D02*
X136858300Y-138841700D01*
X136858300Y-138841700D02*
X136858300Y-144859300D01*
X135740000Y-106540000D02*
X134131600Y-104931600D01*
X134131600Y-104931600D02*
X134131600Y-100570700D01*
X134131600Y-100570700D02*
X134653600Y-100048700D01*
X134653600Y-100048700D02*
X134653600Y-98443900D01*
X134653600Y-98443900D02*
X136127500Y-96970000D01*
X136127500Y-96970000D02*
X137834600Y-96970000D01*
X137834600Y-96970000D02*
X138968800Y-95835800D01*
X138968800Y-95835800D02*
X138968800Y-81747800D01*
X138968800Y-81747800D02*
X144041500Y-76675100D01*
X144041500Y-76675100D02*
X145300100Y-76675100D01*
X145300100Y-76675100D02*
X153540000Y-68435200D01*
X153540000Y-68435200D02*
X153540000Y-67880000D01*
X135740000Y-106540000D02*
X142757100Y-113557100D01*
X142757100Y-113557100D02*
X142757100Y-121596500D01*
X142757100Y-121596500D02*
X144145700Y-122985100D01*
X144145700Y-122985100D02*
X144145700Y-140246900D01*
X144145700Y-140246900D02*
X145470000Y-141571200D01*
X145470000Y-141571200D02*
X145470000Y-147850000D01*
X109620000Y-95000000D02*
X105010000Y-99610000D01*
X105010000Y-99610000D02*
X105010000Y-117270000D01*
X105010000Y-117270000D02*
X100500000Y-121780000D01*
X144620000Y-95700000D02*
X146402000Y-97482000D01*
X146402000Y-97482000D02*
X146402000Y-113378800D01*
X146402000Y-113378800D02*
X144758000Y-115022800D01*
X142930000Y-147850000D02*
X142930600Y-147849400D01*
X142930600Y-147849400D02*
X142930600Y-126204600D01*
X142930600Y-126204600D02*
X140996000Y-124270000D01*
X140996000Y-124270000D02*
X138641200Y-124270000D01*
X138641200Y-124270000D02*
X137938100Y-123566900D01*
X137938100Y-123566900D02*
X137938100Y-121438100D01*
X137938100Y-121438100D02*
X135740000Y-119240000D01*
X144239300Y-77887600D02*
X145180500Y-77887600D01*
X145180500Y-77887600D02*
X153088300Y-69979800D01*
X153088300Y-69979800D02*
X159060200Y-69979800D01*
X159060200Y-69979800D02*
X161160000Y-67880000D01*
X144620000Y-95700000D02*
X141867700Y-92947700D01*
X141867700Y-92947700D02*
X141867700Y-80259200D01*
X141867700Y-80259200D02*
X144239300Y-77887600D01*
X122494400Y-118813900D02*
X122494400Y-119391800D01*
X122494400Y-119391800D02*
X121376200Y-120510000D01*
X121376200Y-120510000D02*
X117010000Y-120510000D01*
X117010000Y-120510000D02*
X115740000Y-119240000D01*
X129938200Y-63439600D02*
X130476500Y-63439600D01*
X130476500Y-63439600D02*
X131701200Y-64664300D01*
X131701200Y-64664300D02*
X131701200Y-70067400D01*
X131701200Y-70067400D02*
X128650900Y-73117700D01*
X128650900Y-73117700D02*
X128650900Y-80447700D01*
X128650900Y-80447700D02*
X127673300Y-81425300D01*
X127673300Y-81425300D02*
X127673300Y-99984500D01*
X127673300Y-99984500D02*
X128555900Y-100867100D01*
X128555900Y-100867100D02*
X128555900Y-122414500D01*
X128555900Y-122414500D02*
X132615800Y-126474400D01*
X132615800Y-126474400D02*
X132615800Y-130256500D01*
X115740000Y-134480000D02*
X116943300Y-135683300D01*
X116943300Y-135683300D02*
X132277000Y-135683300D01*
X132277000Y-135683300D02*
X133100500Y-134859800D01*
X133100500Y-134859800D02*
X134136000Y-134859800D01*
X134136000Y-134859800D02*
X134444800Y-135168600D01*
X127690000Y-147850000D02*
X127690000Y-142887900D01*
X127690000Y-142887900D02*
X134444800Y-136133100D01*
X134444800Y-136133100D02*
X134444800Y-135168600D01*
X135740000Y-134480000D02*
X135051400Y-135168600D01*
X135051400Y-135168600D02*
X134444800Y-135168600D01*
X140000000Y-128080000D02*
X138064700Y-130015300D01*
X138064700Y-130015300D02*
X138064700Y-136824800D01*
X138064700Y-136824800D02*
X132770000Y-142119500D01*
X132770000Y-142119500D02*
X132770000Y-147850000D01*
X120500000Y-119240000D02*
X122658400Y-117081600D01*
X122658400Y-117081600D02*
X122658400Y-102111000D01*
X122658400Y-102111000D02*
X120880600Y-100333200D01*
X120880600Y-100333200D02*
X120880600Y-96100600D01*
X120880600Y-96100600D02*
X119780000Y-95000000D01*
X89193000Y-65425400D02*
X88573700Y-65425400D01*
X88573700Y-65425400D02*
X78213200Y-75785900D01*
X78213200Y-75785900D02*
X78213200Y-122313900D01*
X78213200Y-122313900D02*
X86399600Y-130500300D01*
X86399600Y-130500300D02*
X86399600Y-134769800D01*
X86399600Y-134769800D02*
X88633400Y-137003600D01*
X88633400Y-137003600D02*
X98340800Y-137003600D01*
X98340800Y-137003600D02*
X99689300Y-138352100D01*
X99689300Y-138352100D02*
X102314100Y-138352100D01*
X125150000Y-144154600D02*
X125628000Y-144154600D01*
X125628000Y-144154600D02*
X133544500Y-136238100D01*
X133544500Y-136238100D02*
X133544500Y-135760100D01*
X152500000Y-125580000D02*
X154148800Y-127228800D01*
X154148800Y-127228800D02*
X154148800Y-131551200D01*
X154148800Y-131551200D02*
X152500000Y-133200000D01*
X125150000Y-144154600D02*
X125150000Y-147850000D01*
X125150000Y-144154600D02*
X122874600Y-144154600D01*
X122874600Y-144154600D02*
X115740000Y-137020000D01*
X137850000Y-147850000D02*
X137850000Y-144835200D01*
X137850000Y-144835200D02*
X142184600Y-140500600D01*
X142184600Y-140500600D02*
X142184600Y-126743900D01*
X142184600Y-126743900D02*
X142030300Y-126589600D01*
X148052100Y-101042300D02*
X148052100Y-117634700D01*
X148052100Y-117634700D02*
X145930800Y-119756000D01*
X130494500Y-64730900D02*
X131150900Y-65387300D01*
X131150900Y-65387300D02*
X131150900Y-69839500D01*
X131150900Y-69839500D02*
X128100600Y-72889800D01*
X128100600Y-72889800D02*
X128100600Y-79944500D01*
X128100600Y-79944500D02*
X127123000Y-80922100D01*
X127123000Y-80922100D02*
X127123000Y-100212400D01*
X127123000Y-100212400D02*
X128005600Y-101095000D01*
X128005600Y-101095000D02*
X128005600Y-123470700D01*
X128005600Y-123470700D02*
X127855900Y-123620400D01*
X140390000Y-147850000D02*
X140390000Y-144309000D01*
X160120000Y-130660000D02*
X168039600Y-122740400D01*
X168039600Y-122740400D02*
X168039600Y-87671100D01*
X168039600Y-87671100D02*
X166763700Y-86395200D01*
X166763700Y-86395200D02*
X165671900Y-86395200D01*
X165671900Y-86395200D02*
X164954400Y-87112700D01*
X164954400Y-87112700D02*
X164954400Y-88876300D01*
X164954400Y-88876300D02*
X162159000Y-91671700D01*
X162159000Y-91671700D02*
X160328300Y-91671700D01*
X160328300Y-91671700D02*
X158620000Y-93380000D01*
X163700000Y-105880000D02*
X161190400Y-103370400D01*
X161190400Y-103370400D02*
X158883600Y-103370400D01*
X158883600Y-103370400D02*
X157350000Y-101836800D01*
X157350000Y-101836800D02*
X157350000Y-98794100D01*
X157350000Y-98794100D02*
X154879600Y-96323700D01*
X154879600Y-96323700D02*
X154879600Y-92248300D01*
X154879600Y-92248300D02*
X157282000Y-89845900D01*
X157282000Y-89845900D02*
X157282000Y-85498200D01*
X157282000Y-85498200D02*
X154810000Y-83026200D01*
X154810000Y-83026200D02*
X154810000Y-79310000D01*
X154810000Y-79310000D02*
X151000000Y-75500000D01*
X140000000Y-123000000D02*
X140000000Y-118767900D01*
X140000000Y-118767900D02*
X136592500Y-115360400D01*
X136592500Y-115360400D02*
X134829200Y-115360400D01*
X134829200Y-115360400D02*
X131648200Y-112179400D01*
X131648200Y-112179400D02*
X131648200Y-89609200D01*
X131648200Y-89609200D02*
X131440300Y-89401300D01*
X163700000Y-93380000D02*
X164954600Y-94634600D01*
X164954600Y-94634600D02*
X164954600Y-112245400D01*
X164954600Y-112245400D02*
X163700000Y-113500000D01*
X129124000Y-94130800D02*
X129124000Y-98458500D01*
X129124000Y-98458500D02*
X130097600Y-99432100D01*
X130097600Y-99432100D02*
X130097600Y-110296900D01*
X137000000Y-60000000D02*
X136548000Y-60000000D01*
X136548000Y-60000000D02*
X132801800Y-63746200D01*
X132801800Y-63746200D02*
X132801800Y-70523200D01*
X132801800Y-70523200D02*
X129751500Y-73573500D01*
X129751500Y-73573500D02*
X129751500Y-80903500D01*
X129751500Y-80903500D02*
X128873400Y-81781600D01*
X128873400Y-81781600D02*
X128873400Y-93880200D01*
X128873400Y-93880200D02*
X129124000Y-94130800D01*
X148014800Y-88176700D02*
X148014800Y-86836700D01*
X148014800Y-86836700D02*
X145416400Y-84238300D01*
X145416400Y-84238300D02*
X143715300Y-84238300D01*
X143715300Y-84238300D02*
X143011400Y-83534400D01*
X143011400Y-83534400D02*
X143011400Y-82163000D01*
X143011400Y-82163000D02*
X146603800Y-78570600D01*
X151000000Y-88000000D02*
X152270000Y-89270000D01*
X152270000Y-89270000D02*
X152270000Y-95787100D01*
X152270000Y-95787100D02*
X154810000Y-98327100D01*
X154810000Y-98327100D02*
X154810000Y-109690000D01*
X154810000Y-109690000D02*
X158620000Y-113500000D01*
X140561500Y-81458200D02*
X140561500Y-97837400D01*
X140561500Y-97837400D02*
X145458600Y-102734500D01*
X145458600Y-102734500D02*
X145458600Y-112314800D01*
X107080000Y-87380000D02*
X107052300Y-87380000D01*
X107052300Y-87380000D02*
X97797600Y-96634700D01*
X97797600Y-96634700D02*
X97797600Y-126567900D01*
X97797600Y-126567900D02*
X96529700Y-127835800D01*
X96529700Y-127835800D02*
X93843600Y-127835800D01*
X93843600Y-127835800D02*
X90087800Y-124080000D01*
X90087800Y-124080000D02*
X88000000Y-124080000D01*
X163700000Y-101000000D02*
X157350000Y-94650000D01*
X157350000Y-94650000D02*
X157350000Y-92530000D01*
X157350000Y-92530000D02*
X159820300Y-90059700D01*
X159820300Y-90059700D02*
X159820300Y-85743300D01*
X159820300Y-85743300D02*
X157350000Y-83273000D01*
X157350000Y-83273000D02*
X157350000Y-79310000D01*
X157350000Y-79310000D02*
X153540000Y-75500000D01*
X95620000Y-131700000D02*
X89200400Y-125280400D01*
X89200400Y-125280400D02*
X87069700Y-125280400D01*
X87069700Y-125280400D02*
X86372600Y-124583300D01*
X86372600Y-124583300D02*
X86372600Y-113627400D01*
X86372600Y-113627400D02*
X86850000Y-113150000D01*
X86850000Y-113150000D02*
X86850000Y-101844300D01*
X86850000Y-101844300D02*
X87856000Y-100838300D01*
X115740000Y-124320000D02*
X113561300Y-122141300D01*
X113561300Y-122141300D02*
X113561300Y-100495000D01*
X113561300Y-100495000D02*
X113774300Y-100282000D01*
X149199600Y-94044900D02*
X148943600Y-93788900D01*
X148943600Y-93788900D02*
X148943600Y-85325400D01*
X148943600Y-85325400D02*
X148693800Y-85075600D01*
X156080000Y-75500000D02*
X154457700Y-73877700D01*
X154457700Y-73877700D02*
X149987200Y-73877700D01*
X149987200Y-73877700D02*
X142426700Y-81438200D01*
X142426700Y-81438200D02*
X142426700Y-88056900D01*
X142426700Y-88056900D02*
X143719800Y-89350000D01*
X143719800Y-89350000D02*
X145509200Y-89350000D01*
X145509200Y-89350000D02*
X146989000Y-90829800D01*
X146989000Y-90829800D02*
X146989000Y-114185700D01*
X146989000Y-114185700D02*
X144901500Y-116273200D01*
X148157600Y-79495600D02*
X148917000Y-78736200D01*
X148917000Y-78736200D02*
X151502300Y-78736200D01*
X151502300Y-78736200D02*
X152270000Y-79503900D01*
X152270000Y-79503900D02*
X152270000Y-84190000D01*
X152270000Y-84190000D02*
X156080000Y-88000000D01*
X112160000Y-87380000D02*
X112160000Y-84442000D01*
X112160000Y-84442000D02*
X123534800Y-73067200D01*
X123534800Y-73067200D02*
X123534800Y-67048100D01*
X123534800Y-67048100D02*
X118568800Y-62082100D01*
X118568800Y-62082100D02*
X118568800Y-59440000D01*
X118568800Y-59440000D02*
X120058300Y-57950500D01*
X120058300Y-57950500D02*
X133185800Y-57950500D01*
X158620000Y-67880000D02*
X157019600Y-66279600D01*
X157019600Y-66279600D02*
X153033300Y-66279600D01*
X153033300Y-66279600D02*
X152270000Y-67042900D01*
X152270000Y-67042900D02*
X152270000Y-68722300D01*
X152270000Y-68722300D02*
X151461700Y-69530600D01*
X151461700Y-69530600D02*
X146164000Y-69530600D01*
X146164000Y-69530600D02*
X145523400Y-68890000D01*
X145523400Y-68890000D02*
X143775300Y-68890000D01*
X143775300Y-68890000D02*
X142409900Y-70255400D01*
X142409900Y-70255400D02*
X142409900Y-73346200D01*
X142409900Y-73346200D02*
X131700800Y-84055300D01*
X131700800Y-84055300D02*
X131700800Y-84816800D01*
X131700800Y-84816800D02*
X131350700Y-85166900D01*
X95620000Y-126620000D02*
X95620000Y-126296400D01*
X95620000Y-126296400D02*
X91868500Y-122544900D01*
X91868500Y-122544900D02*
X91868500Y-119211800D01*
X91868500Y-119211800D02*
X89390000Y-116733300D01*
X89390000Y-116733300D02*
X89390000Y-105650000D01*
X89390000Y-105650000D02*
X88120000Y-104380000D01*
X93200000Y-104380000D02*
X93200000Y-112000000D01*
X144620000Y-72700000D02*
X143865200Y-72700000D01*
X143865200Y-72700000D02*
X133349400Y-83215800D01*
X133349400Y-83215800D02*
X133349400Y-85991100D01*
X133349400Y-85991100D02*
X130484400Y-88856100D01*
X130484400Y-88856100D02*
X130484400Y-89927900D01*
X130484400Y-89927900D02*
X130660700Y-90104200D01*
X130660700Y-90104200D02*
X130660700Y-97943900D01*
X95740000Y-104380000D02*
X96051900Y-104068100D01*
X96051900Y-104068100D02*
X96051900Y-99475200D01*
X144620000Y-75240000D02*
X137000000Y-82860000D01*
X137000000Y-82860000D02*
X137000000Y-83000000D01*
X144620000Y-93160000D02*
X144620000Y-90620000D01*
X137000000Y-62540000D02*
X139638200Y-62540000D01*
X139638200Y-62540000D02*
X143407200Y-58771000D01*
X143407200Y-58771000D02*
X154153100Y-58771000D01*
X154153100Y-58771000D02*
X162374800Y-66992700D01*
X162374800Y-66992700D02*
X162374800Y-70369000D01*
X162374800Y-70369000D02*
X159958000Y-72785800D01*
X159958000Y-72785800D02*
X159958000Y-81567700D01*
X159958000Y-81567700D02*
X161160000Y-82769700D01*
X161160000Y-82769700D02*
X161160000Y-88000000D01*
X130324000Y-85908500D02*
X130324000Y-84920400D01*
X130324000Y-84920400D02*
X130852100Y-84392300D01*
X130852100Y-84392300D02*
X130852100Y-74667400D01*
X130852100Y-74667400D02*
X134177700Y-71341800D01*
X134177700Y-71341800D02*
X134177700Y-65362300D01*
X134177700Y-65362300D02*
X137000000Y-62540000D01*
D26*
X151000000Y-67880000D02*
X151000000Y-66380000D01*
X151000000Y-66380000D02*
X144620000Y-60000000D01*
X151000000Y-105880000D02*
X148652400Y-108227600D01*
X148652400Y-108227600D02*
X148652400Y-121967600D01*
X148652400Y-121967600D02*
X147620000Y-123000000D01*
X149749600Y-86320000D02*
X149749600Y-84369600D01*
X149749600Y-84369600D02*
X148380000Y-83000000D01*
X151000000Y-93380000D02*
X149749600Y-92129600D01*
X149749600Y-92129600D02*
X149749600Y-86320000D01*
X149749600Y-86320000D02*
X152017000Y-86320000D01*
X152017000Y-86320000D02*
X153540000Y-87843000D01*
X153540000Y-87843000D02*
X153540000Y-88000000D01*
X148380000Y-83000000D02*
X151000000Y-80380000D01*
X144620000Y-83000000D02*
X148380000Y-83000000D01*
X151000000Y-105880000D02*
X149749600Y-104629600D01*
X149749600Y-104629600D02*
X149749600Y-94838900D01*
X149749600Y-94838900D02*
X151000000Y-93588500D01*
X151000000Y-93588500D02*
X151000000Y-93380000D01*
X102000000Y-60380000D02*
X102000000Y-60999200D01*
X102000000Y-60999200D02*
X92748800Y-70250400D01*
X92748800Y-70250400D02*
X88703700Y-70250400D01*
X88703700Y-70250400D02*
X86160000Y-72794100D01*
X86160000Y-72794100D02*
X86160000Y-73155000D01*
X88000000Y-126620000D02*
X87560200Y-126620000D01*
X87560200Y-126620000D02*
X81750500Y-120810300D01*
X81750500Y-120810300D02*
X81750500Y-105630500D01*
X81750500Y-105630500D02*
X80500000Y-104380000D01*
X147620000Y-128080000D02*
X149270300Y-126429700D01*
X149270300Y-126429700D02*
X149270300Y-124650300D01*
X149270300Y-124650300D02*
X147620000Y-123000000D01*
D25*
X88000000Y-131700000D02*
X91983300Y-135683300D01*
X91983300Y-135683300D02*
X101397000Y-135683300D01*
X101397000Y-135683300D02*
X102650700Y-134429600D01*
X102650700Y-134429600D02*
X102650700Y-126863300D01*
X102650700Y-126863300D02*
X107761400Y-121752600D01*
X107761400Y-121752600D02*
X107761400Y-102553100D01*
X107761400Y-102553100D02*
X111531900Y-98782600D01*
X111531900Y-98782600D02*
X114326400Y-98782600D01*
X114326400Y-98782600D02*
X117374300Y-101830500D01*
X117374300Y-101830500D02*
X117374300Y-107445700D01*
X117374300Y-107445700D02*
X115740000Y-109080000D01*
X89000000Y-77310000D02*
X91055600Y-77310000D01*
X91055600Y-77310000D02*
X98055400Y-70310200D01*
X115740000Y-106540000D02*
X114139600Y-104939600D01*
X114139600Y-104939600D02*
X114139600Y-101190000D01*
X114139600Y-101190000D02*
X114674600Y-100655000D01*
X114674600Y-100655000D02*
X114674600Y-99909000D01*
X114674600Y-99909000D02*
X114147300Y-99381700D01*
X114147300Y-99381700D02*
X112274800Y-99381700D01*
X112274800Y-99381700D02*
X111926100Y-99730400D01*
X80000000Y-93500000D02*
X82111900Y-93500000D01*
X82111900Y-93500000D02*
X90226500Y-101614600D01*
X87620000Y-96040000D02*
X92888100Y-90771900D01*
X92888100Y-90771900D02*
X92888100Y-77111900D01*
X92888100Y-77111900D02*
X102000000Y-68000000D01*
X125796100Y-90045000D02*
X126572700Y-90821600D01*
X126572700Y-90821600D02*
X126572700Y-101720100D01*
X126572700Y-101720100D02*
X127105200Y-102252600D01*
X140000000Y-138240000D02*
X141634200Y-136605800D01*
X141634200Y-136605800D02*
X141634200Y-127544300D01*
X141634200Y-127544300D02*
X140000000Y-125910100D01*
X140000000Y-125910100D02*
X140000000Y-125540000D01*
X137000000Y-98240000D02*
X137767500Y-98240000D01*
X137767500Y-98240000D02*
X142114400Y-102586900D01*
X126000000Y-79500000D02*
X126062900Y-79562900D01*
X126062900Y-79562900D02*
X126062900Y-88505000D01*
X126062900Y-88505000D02*
X124860000Y-89707900D01*
X124860000Y-89707900D02*
X124860000Y-95000000D01*
X156534500Y-125090600D02*
X156534500Y-116494500D01*
X156534500Y-116494500D02*
X153540000Y-113500000D01*
X124860000Y-95000000D02*
X124860000Y-106973500D01*
X88000000Y-134240000D02*
X90060400Y-136300400D01*
X90060400Y-136300400D02*
X99780400Y-136300400D01*
X99780400Y-136300400D02*
X100500000Y-137020000D01*
X129940000Y-68000000D02*
X127550300Y-70389700D01*
X127550300Y-70389700D02*
X127550300Y-77949700D01*
X127550300Y-77949700D02*
X126000000Y-79500000D01*
X120500000Y-137020000D02*
X122422500Y-137020000D01*
X122422500Y-137020000D02*
X126955900Y-141553400D01*
X86160000Y-75925000D02*
X87373600Y-77138600D01*
X87373600Y-77138600D02*
X87373600Y-83176700D01*
X87373600Y-83176700D02*
X86258700Y-84291600D01*
X86258700Y-84291600D02*
X86258700Y-92138700D01*
X86258700Y-92138700D02*
X87620000Y-93500000D01*
X166240000Y-88000000D02*
X167441200Y-89201200D01*
X167441200Y-89201200D02*
X167441200Y-99798800D01*
X167441200Y-99798800D02*
X166240000Y-101000000D01*
X166240000Y-101000000D02*
X167440400Y-102200400D01*
X167440400Y-102200400D02*
X167440400Y-112299600D01*
X167440400Y-112299600D02*
X166240000Y-113500000D01*
X137000000Y-75240000D02*
X136760000Y-75240000D01*
X136760000Y-75240000D02*
X132500000Y-79500000D01*
M02*
